<?xml version="1.0"?>
<svg xmlns="http://www.w3.org/2000/svg" xmlns:xlink="http://www.w3.org/1999/xlink" xmlns:svgjs="http://svgjs.com/svgjs" version="1.1" width="512" height="512" x="0" y="0" viewBox="0 0 448 448" style="enable-background:new 0 0 512 512" xml:space="preserve"><g transform="matrix(0.9,0,0,0.9000000000000001,19.599999999999937,22.39999999999995)"><path xmlns="http://www.w3.org/2000/svg" d="m392 448v-448h-304v72c0 13.253906 10.746094 24 24 24h176c4.417969 0 8 3.582031 8 8v344zm-64-168c0 4.417969-3.582031 8-8 8s-8-3.582031-8-8v-16c0-4.417969 3.582031-8 8-8s8 3.582031 8 8zm0-48c0 4.417969-3.582031 8-8 8s-8-3.582031-8-8v-16c0-4.417969 3.582031-8 8-8s8 3.582031 8 8zm0-48c0 4.417969-3.582031 8-8 8s-8-3.582031-8-8v-16c0-4.417969 3.582031-8 8-8s8 3.582031 8 8zm8-176c22.089844 0 40 17.910156 40 40s-17.910156 40-40 40-40-17.910156-40-40c.027344-22.082031 17.917969-39.972656 40-40zm0 0" fill="#ffffff" data-original="#000000" style=""/><path xmlns="http://www.w3.org/2000/svg" d="m184 176h16v16h-16zm0 0" fill="#ffffff" data-original="#000000" style=""/><path xmlns="http://www.w3.org/2000/svg" d="m280 352h-160c-13.253906 0-24 10.746094-24 24v72h184zm0 0" fill="#ffffff" data-original="#000000" style=""/><path xmlns="http://www.w3.org/2000/svg" d="m344 48c0 4.417969-3.582031 8-8 8h-22.527344c3.894532 11.019531 15.164063 17.632812 26.683594 15.65625 11.523438-1.976562 19.941406-11.96875 19.941406-23.65625s-8.417968-21.679688-19.941406-23.65625c-11.519531-1.976562-22.789062 4.636719-26.683594 15.65625h22.527344c4.417969 0 8 3.582031 8 8zm0 0" fill="#ffffff" data-original="#000000" style=""/><path xmlns="http://www.w3.org/2000/svg" d="m160 112v24h-32l-128-8v32l128-8h32v8h64v-48zm0 0" fill="#ffffff" data-original="#000000" style=""/><path xmlns="http://www.w3.org/2000/svg" d="m152 248v8h-16c-4.417969 0-8 3.582031-8 8s3.582031 8 8 8h16v24c0 17.671875 14.328125 32 32 32h16c17.671875 0 32-14.328125 32-32v-48zm0 0" fill="#ffffff" data-original="#000000" style=""/></g></svg>
