<?xml version="1.0"?>
<svg xmlns="http://www.w3.org/2000/svg" xmlns:xlink="http://www.w3.org/1999/xlink" xmlns:svgjs="http://svgjs.com/svgjs" version="1.1" width="512" height="512" x="0" y="0" viewBox="0 0 512 512" style="enable-background:new 0 0 512 512" xml:space="preserve" class=""><g transform="matrix(0.8,0,0,0.8,51.20000114440916,51.199967527389674)"><g xmlns="http://www.w3.org/2000/svg"><g><g><ellipse cx="443.833" cy="91.115" rx="68.167" ry="91.115" fill="#ffffff" data-original="#000000" style="" class=""/><path d="m443.833 213.386c-10.531 0-20.771-1.946-30.581-5.779v274.066c0 16.749 13.691 30.327 30.58 30.327 16.889 0 30.58-13.578 30.58-30.327v-274.065c-9.808 3.832-20.047 5.778-30.579 5.778z" fill="#ffffff" data-original="#000000" style="" class=""/></g><g><path d="m308.595 238.6c-10.52-141.348-50.68-209.679-71.208-235.954-4.014-5.138-12.239-2.293-12.239 4.232v321.906c48.636-.155 87.065-41.582 83.447-90.184z" fill="#ffffff" data-original="#000000" style="" class=""/><path d="m271.946 349.714c-14.729 6.63-30.441 10.017-46.699 10.069-.033 0-.065 0-.098 0v122.042c0 16.665 13.481 30.175 30.111 30.175s30.111-13.51 30.111-30.175v-139.258c-4.293 2.663-8.77 5.052-13.425 7.147z" fill="#ffffff" data-original="#000000" style="" class=""/></g></g><path d="m49.046 237.138v244.626c0 16.699 13.481 30.236 30.111 30.236s30.111-13.537 30.111-30.236v-244.559c-9.784 1.947-19.783 2.938-29.941 2.938-10.278.001-20.391-1.014-30.281-3.005z" fill="#ffffff" data-original="#000000" style="" class=""/><path d="m142.675 0c-8.542 0-15.467 6.954-15.467 15.531v76.882h-32.755v-76.882c0-8.52-6.833-15.43-15.296-15.522v-.009c-.029 0-.057.004-.085.004-.03 0-.057-.004-.086-.004v.009c-8.463.093-15.296 7.003-15.296 15.522v76.882h-32.756v-76.882c0-8.577-6.925-15.531-15.467-15.531s-15.467 6.954-15.467 15.531c0 0 .013 119.303.038 120.122 1.265 41.321 35.668 73.719 77.002 74.469.648.012 3.415.012 4.063 0 41.334-.751 75.737-33.148 77.002-74.469.025-.819.038-120.122.038-120.122-.001-8.577-6.925-15.531-15.468-15.531z" fill="#ffffff" data-original="#000000" style="" class=""/></g></g></svg>
