<?xml version="1.0"?>
<svg xmlns="http://www.w3.org/2000/svg" xmlns:xlink="http://www.w3.org/1999/xlink" xmlns:svgjs="http://svgjs.com/svgjs" version="1.1" width="512" height="512" x="0" y="0" viewBox="0 0 512 512" style="enable-background:new 0 0 512 512" xml:space="preserve" class=""><g transform="matrix(0.93,0,0,0.9299999999999999,17.920874252319265,17.920000000000016)">
<g xmlns="http://www.w3.org/2000/svg">
	<g>
		<path d="M389.915,165.722c0,0-13.425,19.723-41.563,36.418c0,0,20.378-172.229-112.401-202.14    c34.019,124.854-43.272,160.064-71.447,94.102c-47.051,62.819-11.326,117.625-11.326,117.625    c-19.293,2.78-35.499-18.298-35.499-18.298c-0.145,2.597-0.225,5.21-0.225,7.843c-0.002,66.965,47.511,122.832,110.665,135.731    c-19.529-10.104-32.886-30.477-32.886-53.982c0-17.96,7.792-34.1,20.181-45.222c23.491,31.913,56.966-16.497,30.878-51.849    c0,0,70.454,8.829,70.454,97.071c0,23.505-13.357,43.878-32.886,53.982c63.154-12.899,110.667-68.767,110.667-135.732    C394.527,188.981,392.919,177.068,389.915,165.722z" fill="#ffffff" data-original="#000000" style="" class=""/>
	</g>
</g>
<g xmlns="http://www.w3.org/2000/svg">
	<g>
		<polygon points="400.072,362.323 304.586,393.309 391.125,421.391 416.561,413.138   " fill="#ffffff" data-original="#000000" style="" class=""/>
	</g>
</g>
<g xmlns="http://www.w3.org/2000/svg">
	<g>
		<polygon points="120.852,452.931 95.417,461.186 111.906,512 207.392,481.014   " fill="#ffffff" data-original="#000000" style="" class=""/>
	</g>
</g>
<g xmlns="http://www.w3.org/2000/svg">
	<g>
		
			<rect x="229.292" y="276.98" transform="matrix(0.3087 -0.9512 0.9512 0.3087 -238.81 545.6979)" width="53.422" height="320.312" fill="#ffffff" data-original="#000000" style="" class=""/>
	</g>
</g>
<g xmlns="http://www.w3.org/2000/svg">
</g>
<g xmlns="http://www.w3.org/2000/svg">
</g>
<g xmlns="http://www.w3.org/2000/svg">
</g>
<g xmlns="http://www.w3.org/2000/svg">
</g>
<g xmlns="http://www.w3.org/2000/svg">
</g>
<g xmlns="http://www.w3.org/2000/svg">
</g>
<g xmlns="http://www.w3.org/2000/svg">
</g>
<g xmlns="http://www.w3.org/2000/svg">
</g>
<g xmlns="http://www.w3.org/2000/svg">
</g>
<g xmlns="http://www.w3.org/2000/svg">
</g>
<g xmlns="http://www.w3.org/2000/svg">
</g>
<g xmlns="http://www.w3.org/2000/svg">
</g>
<g xmlns="http://www.w3.org/2000/svg">
</g>
<g xmlns="http://www.w3.org/2000/svg">
</g>
<g xmlns="http://www.w3.org/2000/svg">
</g>
</g></svg>
