<?xml version="1.0"?>
<svg xmlns="http://www.w3.org/2000/svg" xmlns:xlink="http://www.w3.org/1999/xlink" xmlns:svgjs="http://svgjs.com/svgjs" version="1.1" width="512" height="512" x="0" y="0" viewBox="0 0 317.126 317.126" style="enable-background:new 0 0 512 512" xml:space="preserve" class=""><g transform="matrix(0.8600000000000001,0,0,0.8599999999999999,22.19886749267573,22.19875160217282)">
<g xmlns="http://www.w3.org/2000/svg">
	<path d="M317,281.759c0-5.493-4.453-9.946-9.946-9.946h-33.107c-5.493,0-9.946,4.453-9.946,9.946v20.107   c0,5.493,4.453,9.946,9.946,9.946h33.107c5.493,0,9.946-4.453,9.946-9.946V281.759z" fill="#ffffff" data-original="#000000" style="" class=""/>
	<path d="M317.123,160.062c-0.064-2.752-1.192-5.355-3.246-7.187c-2.054-1.832-4.732-2.733-7.473-2.486l-33.202,2.972   c-5.15,0.463-9.201,4.771-9.201,9.942c0,0.17,0,0.34,0,0.51v65.054c0,5.493,4.786,9.946,10.279,9.946h33.107   c5.493,0,9.613-4.453,9.613-9.946v-65.054C317,162.565,317.152,161.314,317.123,160.062z" fill="#ffffff" data-original="#000000" style="" class=""/>
	<path d="M44.064,153.894l-32.986-2.819c-2.744-0.234-5.421,0.675-7.468,2.518c-2.047,1.843-3.384,4.451-3.436,7.205   C0.155,161.803,0,162.809,0,163.813v66.054c0,5.493,4.786,9.946,10.279,9.946h33.107c5.493,0,9.613-4.453,9.613-9.946v-66.054   c0-0.006,0-0.012,0-0.019C53,158.633,49.208,154.333,44.064,153.894z" fill="#ffffff" data-original="#000000" style="" class=""/>
	<path d="M121.361,55.036c1.682,4.881,6.794,7.666,11.804,6.414c8.346-2.084,16.946-3.137,25.67-3.137   c8.554-0.001,16.993,1.013,25.19,3.02c5.006,1.226,10.118-1.589,11.773-6.47l10.662-31.435c0.886-2.61,0.654-5.47-0.647-7.9   c-1.301-2.43-3.552-4.21-6.215-4.918c-13.249-3.519-26.918-5.298-40.766-5.297c-14.102,0-28.008,1.843-41.476,5.488   c-2.659,0.719-4.898,2.518-6.188,4.951c-1.289,2.434-1.513,5.293-0.616,7.897L121.361,55.036z" fill="#ffffff" data-original="#000000" style="" class=""/>
	<path d="M95.928,67.522L77.732,39.736c-1.509-2.305-3.915-3.876-6.629-4.346c-2.715-0.47-5.502,0.205-7.699,1.866   c-22.18,16.772-39.73,39.256-50.566,64.776c-1.078,2.539-1.059,5.41,0.061,7.931c1.118,2.521,3.233,4.464,5.839,5.365l31.39,10.861   c4.867,1.685,10.215-0.639,12.319-5.34c6.991-15.619,17.795-29.449,31.302-40.07C97.808,77.589,98.757,71.842,95.928,67.522z" fill="#ffffff" data-original="#000000" style="" class=""/>
	<path d="M298.701,114.676c2.601-0.913,4.703-2.873,5.809-5.397c1.106-2.524,1.117-5.394,0.028-7.926   c-10.956-25.473-28.613-47.876-50.871-64.544c-2.206-1.652-4.998-2.32-7.712-1.837c-2.714,0.482-5.105,2.069-6.605,4.383   l-18.064,27.872c-2.803,4.326-1.824,10.08,2.242,13.248c13.557,10.557,24.426,24.339,31.491,39.928   c2.13,4.7,7.477,6.993,12.346,5.283L298.701,114.676z" fill="#ffffff" data-original="#000000" style="" class=""/>
	<path d="M53,281.759c0-5.493-4.453-9.946-9.946-9.946H9.946c-5.493,0-9.946,4.453-9.946,9.946v20.107   c0,5.493,4.453,9.946,9.946,9.946h33.107c5.493,0,9.946-4.453,9.946-9.946V281.759z" fill="#ffffff" data-original="#000000" style="" class=""/>
	<path d="M211.849,175.772c-1.279,0.167-2.257,1.223-2.323,2.512c-0.411,7.867-1.997,15.567-3.896,22.276   c-9.564-27.085-26.561-57.343-52.65-84.795c-2.049-2.157-5.202-2.854-7.97-1.763c-2.767,1.093-4.595,3.755-4.619,6.729   c-0.486,59.07-46.065,108.581-46.065,136.214c0,21.359,12.138,39.871,29.886,49.05c-0.796-2.7-1.23-5.556-1.23-8.515   c0-14.18,26.2-38.928,30.216-68.642c0.354-2.616,2.224-4.772,4.763-5.493c2.539-0.721,5.265,0.133,6.939,2.174   c22.749,27.734,26.308,59.352,23.472,75.23c-0.061,0.347-0.138,0.686-0.211,1.027c50.426-25.717,37.222-91.105,26.58-124.174   C214.344,176.377,213.128,175.606,211.849,175.772z" fill="#ffffff" data-original="#000000" style="" class=""/>
</g>
<g xmlns="http://www.w3.org/2000/svg">
</g>
<g xmlns="http://www.w3.org/2000/svg">
</g>
<g xmlns="http://www.w3.org/2000/svg">
</g>
<g xmlns="http://www.w3.org/2000/svg">
</g>
<g xmlns="http://www.w3.org/2000/svg">
</g>
<g xmlns="http://www.w3.org/2000/svg">
</g>
<g xmlns="http://www.w3.org/2000/svg">
</g>
<g xmlns="http://www.w3.org/2000/svg">
</g>
<g xmlns="http://www.w3.org/2000/svg">
</g>
<g xmlns="http://www.w3.org/2000/svg">
</g>
<g xmlns="http://www.w3.org/2000/svg">
</g>
<g xmlns="http://www.w3.org/2000/svg">
</g>
<g xmlns="http://www.w3.org/2000/svg">
</g>
<g xmlns="http://www.w3.org/2000/svg">
</g>
<g xmlns="http://www.w3.org/2000/svg">
</g>
</g></svg>
