<?xml version="1.0"?>
<svg xmlns="http://www.w3.org/2000/svg" xmlns:xlink="http://www.w3.org/1999/xlink" xmlns:svgjs="http://svgjs.com/svgjs" version="1.1" width="512" height="512" x="0" y="0" viewBox="0 0 512 512" style="enable-background:new 0 0 512 512" xml:space="preserve" class=""><g transform="matrix(0.9299999999999999,0,0,0.9299999999999999,17.92002189636233,17.920004271417895)"><g xmlns="http://www.w3.org/2000/svg"><path d="m406.445 59.377-46.742-29.314h16.89c8.076 0 15.025-6.206 15.405-14.273.406-8.613-6.457-15.724-14.981-15.724-104.094 0-25.438-.066-129.548-.066-8.283 0-15.007 6.715-15.007 14.998v19.59h-16.956c-64.607 0-116.982 52.375-116.982 116.982v345.008c0 8.076 6.206 15.025 14.273 15.405 8.613.406 15.724-6.457 15.724-14.981v-345.432c0-48.041 38.945-86.985 86.985-86.985h16.956v27.624c-34.296 16.958-56.693 52.384-56.693 91.2v221.605h203.377v-68.662c-7.843 0-68.488 0-76.351 0-11.219 0-20.338-9.119-20.338-20.328v-115.317c0-11.209 9.119-20.338 20.338-20.338h76.301c-1.13-37.656-23.237-71.672-56.643-88.17v-50.09l68.056 42.681c7.016 4.4 16.273 2.28 20.675-4.738 4.399-7.018 2.278-16.274-4.739-20.675z" fill="#ffffff" data-original="#000000" style="" class=""/><path d="m175.768 435.01v46.605c0 16.708 13.598 30.306 30.307 30.306h142.764c16.708 0 30.306-13.598 30.306-30.306v-46.605c-7.74 0-186.365 0-203.377 0z" fill="#ffffff" data-original="#000000" style="" class=""/><path d="m312.452 210.366v95.989h66.692v-95.989c-6.77 0-60.152 0-66.692 0z" fill="#ffffff" data-original="#000000" style="" class=""/></g></g></svg>
