<?xml version="1.0"?>
<svg xmlns="http://www.w3.org/2000/svg" id="Layer" enable-background="new 0 0 64 64" height="512px" viewBox="0 0 64 64" width="512px"><g><path d="m32 34c-1.104 0-2 .896-2 2v13.172l-2.586-2.586c-.78-.781-2.048-.781-2.828 0-.781.781-.781 2.047 0 2.828l6 6c.39.391.902.586 1.414.586s1.024-.195 1.414-.586l6-6c.781-.781.781-2.047 0-2.828-.78-.781-2.048-.781-2.828 0l-2.586 2.586v-13.172c0-1.104-.896-2-2-2z" data-original="#000000" class="active-path" data-old_color="#000000" fill="#FFFFFF"/><path d="m39.414 14.586-6-6c-.78-.781-2.048-.781-2.828 0l-6 6c-.781.781-.781 2.047 0 2.828.78.781 2.048.781 2.828 0l2.586-2.586v13.172c0 1.104.896 2 2 2s2-.896 2-2v-13.172l2.586 2.586c.39.391.902.586 1.414.586s1.024-.195 1.414-.586c.781-.781.781-2.047 0-2.828z" data-original="#000000" class="active-path" data-old_color="#000000" fill="#FFFFFF"/></g> </svg>
