<?xml version="1.0"?>
<svg xmlns="http://www.w3.org/2000/svg" xmlns:xlink="http://www.w3.org/1999/xlink" version="1.1" id="Capa_1" x="0px" y="0px" viewBox="0 0 511.999 511.999" style="enable-background:new 0 0 511.999 511.999;" xml:space="preserve" width="512px" height="512px"><g><g>
	<g>
		<path d="M396.263,207.52H128.599c3.389,38.693,25.379,72.13,56.947,91.306l-25.032,90.596c-0.472-0.011-0.94-0.036-1.415-0.036    c-33.805,0-61.307,27.502-61.307,61.307s27.502,61.306,61.307,61.306s61.307-27.502,61.307-61.307c0-1.98-0.103-3.937-0.287-5.87    h128.415l17.83,64.527l28.916-7.99l-55.963-202.533C370.883,279.651,392.874,246.213,396.263,207.52z M340.244,414.822H208.77    c-5.128-7.081-11.727-13.022-19.349-17.379l23.848-86.31c10.74,3.194,22.108,4.913,33.872,4.913h30.581    c11.763,0,23.132-1.719,33.871-4.913L340.244,414.822z" data-original="#000000" class="active-path" data-old_color="#000000" fill="#FFFFFF"/>
	</g>
</g><g>
	<g>
		<rect x="110.658" y="146.259" width="303.55" height="31.27" data-original="#000000" class="active-path" data-old_color="#000000" fill="#FFFFFF"/>
	</g>
</g><g>
	<g>
		<path d="M197.377,34.316c0-6.14,0.833-8.632,2.093-12.404c1.622-4.854,3.64-10.894,3.64-21.912h-30    c0,6.14-0.833,8.632-2.093,12.404c-1.622,4.854-3.64,10.894-3.64,21.912c0,11.02,2.018,17.06,3.64,21.913    c1.261,3.772,2.093,6.265,2.093,12.404c0,6.139-0.833,8.633-2.093,12.406c-1.622,4.853-3.64,10.893-3.64,21.912h30    c0-6.14,0.833-8.633,2.093-12.406c1.622-4.853,3.64-10.893,3.64-21.912c0-11.019-2.018-17.059-3.64-21.911    C198.21,42.949,197.377,40.456,197.377,34.316z" data-original="#000000" class="active-path" data-old_color="#000000" fill="#FFFFFF"/>
	</g>
</g><g>
	<g>
		<path d="M351.752,34.316c0-6.14,0.833-8.632,2.093-12.404c1.622-4.854,3.64-10.894,3.64-21.912h-30    c0,6.14-0.833,8.632-2.093,12.404c-1.622,4.854-3.64,10.894-3.64,21.912c0,11.02,2.018,17.06,3.64,21.913    c1.261,3.772,2.093,6.265,2.093,12.404c0,6.139-0.833,8.633-2.093,12.406c-1.622,4.853-3.64,10.893-3.64,21.912h30    c0-6.14,0.833-8.633,2.093-12.406c1.622-4.853,3.64-10.893,3.64-21.912c0-11.019-2.018-17.059-3.64-21.911    C352.584,42.949,351.752,40.456,351.752,34.316z" data-original="#000000" class="active-path" data-old_color="#000000" fill="#FFFFFF"/>
	</g>
</g><g>
	<g>
		<path d="M276.657,46.721c-1.261-3.772-2.094-6.266-2.094-12.405c0-6.139,0.833-8.632,2.093-12.404    c1.622-4.854,3.64-10.894,3.64-21.912h-30c0,6.14-0.833,8.632-2.093,12.404c-1.622,4.854-3.64,10.894-3.64,21.912    c0,11.02,2.018,17.06,3.64,21.913c1.26,3.772,2.093,6.265,2.093,12.404c0,6.139-0.833,8.633-2.094,12.405    c-1.621,4.854-3.639,10.894-3.639,21.913h30c0-6.14,0.833-8.633,2.094-12.405c1.622-4.854,3.64-10.894,3.64-21.913    C280.297,57.614,278.279,51.574,276.657,46.721z" data-original="#000000" class="active-path" data-old_color="#000000" fill="#FFFFFF"/>
	</g>
</g></g> </svg>
