<?xml version="1.0"?>
<svg xmlns="http://www.w3.org/2000/svg" id="Capa_1" enable-background="new 0 0 512 512" height="512px" viewBox="0 0 512 512" width="512px"><g transform="matrix(0.886208 0 0 0.886208 29.1308 29.1308)"><path d="m332.154 282.398c-18.607 9.689-39.271 15.943-61.154 17.919v57.083z" data-original="#000000" class="active-path" data-old_color="#000000" fill="#FFFFFF"/><path d="m241 357.4v-57.083c-21.883-1.976-42.547-8.23-61.154-17.919z" data-original="#000000" class="active-path" data-old_color="#000000" fill="#FFFFFF"/><path d="m80.334 416.666v40.167c0 30.419 24.748 55.167 55.166 55.167h105.5v-107.126l-99.15-121.599c-37.625 32.242-61.516 80.073-61.516 133.391z" data-original="#000000" class="active-path" data-old_color="#000000" fill="#FFFFFF"/><path d="m370.15 283.275-99.15 121.598v107.127h105.5c30.418 0 55.166-24.748 55.166-55.167v-40.167c0-53.318-23.891-101.149-61.516-133.391z" data-original="#000000" class="active-path" data-old_color="#000000" fill="#FFFFFF"/><path d="m391.5 135.5c0-74.715-60.785-135.5-135.5-135.5s-135.5 60.785-135.5 135.5 60.785 135.5 135.5 135.5 135.5-60.785 135.5-135.5z" data-original="#000000" class="active-path" data-old_color="#000000" fill="#FFFFFF"/></g> </svg>
