<?xml version="1.0"?>
<svg xmlns="http://www.w3.org/2000/svg" xmlns:xlink="http://www.w3.org/1999/xlink" xmlns:svgjs="http://svgjs.com/svgjs" version="1.1" width="512" height="512" x="0" y="0" viewBox="0 0 512 512" style="enable-background:new 0 0 512 512" xml:space="preserve"><g transform="matrix(0.93,0,0,0.9299999999999998,17.919999999999987,17.920010180473326)"><g xmlns="http://www.w3.org/2000/svg"><path d="m444.76 114.998c-5.802-39.986-22.821-78.786-49.372-109.762-5.981-6.978-16.793-6.982-22.777 0-26.551 30.975-43.569 69.776-49.372 109.762z" fill="#ffffff" data-original="#000000" style=""/><path d="m35 146.821c-19.352 5.536-35 23.413-35 45.177 0 21.406 15.39 39.502 35 45.157z" fill="#ffffff" data-original="#000000" style=""/><path d="m464 144.998c-48.559 0-195.472 0-243 0v94h162.265l-99.108 67.392c-16.678-12.519-39.611-12.537-56.314 0l-36.843-25.052c0-34.243 0-119.82 0-153.34 0-8.284-6.716-15-15-15h-96c-8.284 0-15 6.716-15 15v192c0 8.284 6.716 15 15 15h96c8.284 0 15-6.716 15-15v-2.382l19.817 13.474c-2.398 8.38-2.395 17.07-.152 25.281l-187.1 128.223c-6.851 4.658-8.627 13.988-3.97 20.838 4.659 6.851 13.99 8.627 20.839 3.969l186.974-128.137c16.869 12.973 40.287 12.994 57.184 0l186.974 128.137c6.866 4.669 16.19 2.866 20.839-3.969 4.658-6.851 2.881-16.18-3.97-20.838l-187.1-128.223c2.261-8.275 2.228-16.963-.152-25.281l135.434-92.093h27.383c25.981 0 48-21.014 48-47 0-25.915-22.084-46.999-48-46.999z" fill="#ffffff" data-original="#000000" style=""/></g></g></svg>
