<?xml version="1.0"?>
<svg xmlns="http://www.w3.org/2000/svg" xmlns:xlink="http://www.w3.org/1999/xlink" xmlns:svgjs="http://svgjs.com/svgjs" version="1.1" width="512" height="512" x="0" y="0" viewBox="0 0 416.002 416.002" style="enable-background:new 0 0 512 512" xml:space="preserve" class=""><g transform="matrix(0.8700000000000001,0,0,0.8700000000000001,27.040130920410036,27.040130000006116)">
<g xmlns="http://www.w3.org/2000/svg">
	<g>
		<path d="M368.001,240.001l-58.492,23.393c-5.39-14.225-12.801-27.435-21.785-39.393H32.22c-20.168,26.725-32.218,59.912-32.218,96    v64c0,17.68,14.32,32,32,32h256c17.68,0,32-14.32,32-32v-32l96-96L368.001,240.001z" fill="#ffffff" data-original="#000000" style=""/>
	</g>
</g>
<g xmlns="http://www.w3.org/2000/svg">
	<g>
		<path d="M273.966,208.001c-23.18-23.631-53.566-40.149-87.68-45.805c3.586-5.17,5.715-11.426,5.715-18.195    c0-17.674-14.324-32-32-32c-17.672,0-32,14.326-32,32c0,6.83,2.18,13.129,5.824,18.324c-34.141,5.633-64.582,22.1-87.817,45.676    H273.966z" fill="#ffffff" data-original="#000000" style=""/>
	</g>
</g>
<g xmlns="http://www.w3.org/2000/svg">
	<g>
		<path d="M160,0.001c-88.222,0-160,71.775-160,160c0,6.016,0.336,11.951,0.992,17.791c0.978,8.785,8.914,15.168,17.665,14.129    c8.785-0.977,15.106-8.897,14.129-17.664c-0.512-4.687-0.785-9.439-0.785-14.256c0-70.576,57.426-128,128-128    c70.578,0,128,57.424,128,128c0,4.817-0.27,9.584-0.782,14.256c-0.992,8.785,5.344,16.687,14.125,17.664    c0.61,0.065,1.203,0.096,1.793,0.096c8.035,0,14.977-6.047,15.871-14.225c0.656-5.84,0.992-11.775,0.992-17.791    C320,71.776,248.226,0.001,160,0.001z" fill="#ffffff" data-original="#000000" style=""/>
	</g>
</g>
<g xmlns="http://www.w3.org/2000/svg">
</g>
<g xmlns="http://www.w3.org/2000/svg">
</g>
<g xmlns="http://www.w3.org/2000/svg">
</g>
<g xmlns="http://www.w3.org/2000/svg">
</g>
<g xmlns="http://www.w3.org/2000/svg">
</g>
<g xmlns="http://www.w3.org/2000/svg">
</g>
<g xmlns="http://www.w3.org/2000/svg">
</g>
<g xmlns="http://www.w3.org/2000/svg">
</g>
<g xmlns="http://www.w3.org/2000/svg">
</g>
<g xmlns="http://www.w3.org/2000/svg">
</g>
<g xmlns="http://www.w3.org/2000/svg">
</g>
<g xmlns="http://www.w3.org/2000/svg">
</g>
<g xmlns="http://www.w3.org/2000/svg">
</g>
<g xmlns="http://www.w3.org/2000/svg">
</g>
<g xmlns="http://www.w3.org/2000/svg">
</g>
</g></svg>
