<?xml version="1.0" standalone="no"?>
<!DOCTYPE svg PUBLIC "-//W3C//DTD SVG 20010904//EN"
 "http://www.w3.org/TR/2001/REC-SVG-20010904/DTD/svg10.dtd">
<svg version="1.0" xmlns="http://www.w3.org/2000/svg"
 width="512.000000pt" height="512.000000pt" viewBox="0 0 512.000000 512.000000"
 preserveAspectRatio="xMidYMid meet">

<g transform="translate(0.000000,512.000000) scale(0.100000,-0.100000)"
fill="#000000" stroke="none">
<path d="M1630 5105 c-341 -69 -609 -348 -655 -683 -6 -46 -10 -53 -33 -58
-165 -34 -231 -57 -355 -122 -404 -213 -640 -673 -576 -1128 51 -368 285 -690
622 -855 l67 -33 0 -931 0 -930 183 -183 182 -182 238 0 237 0 0 195 0 194
-100 132 c-56 73 -99 138 -96 144 2 7 47 69 100 139 l96 126 0 137 0 137 -100
132 c-55 73 -100 135 -100 139 0 4 45 65 100 137 l100 131 0 244 0 243 78 39
c43 21 113 66 157 98 677 504 579 1535 -180 1899 -97 47 -239 94 -284 94 -37
1 -42 13 -26 73 44 171 179 313 344 363 272 82 564 -76 647 -351 15 -52 32
-275 20 -275 -3 0 -38 16 -76 35 -38 19 -72 35 -75 35 -3 0 19 -29 48 -63 318
-375 418 -886 266 -1357 -34 -105 -122 -278 -189 -372 -77 -108 -213 -248
-308 -318 -40 -28 -72 -56 -72 -61 0 -9 886 -1548 899 -1562 9 -9 478 -137
504 -137 18 0 407 220 407 230 0 3 -44 81 -98 175 l-98 169 -147 61 c-81 34
-149 64 -152 66 -2 3 5 78 16 166 l20 162 -72 125 -72 125 -149 62 c-82 35
-150 65 -152 68 -2 3 6 78 17 167 l20 160 -122 212 -123 212 47 69 c87 131
153 304 175 460 18 122 8 312 -24 433 -27 108 -86 241 -146 334 l-40 60 0 203
c0 248 -13 371 -49 478 -130 380 -535 616 -921 538z m-388 -1324 c103 -54 159
-136 166 -247 6 -93 -15 -158 -73 -222 -60 -66 -127 -96 -220 -96 -163 0 -284
115 -293 276 -9 144 74 262 218 309 45 15 155 4 202 -20z"/>
<path d="M2847 4055 c116 -161 200 -347 244 -544 26 -115 36 -342 20 -463 -22
-165 -70 -327 -137 -460 l-34 -68 101 -174 c55 -96 105 -179 112 -184 7 -5
285 -167 618 -360 l606 -349 253 68 c139 37 256 71 260 76 11 13 230 396 228
398 -2 1 -79 46 -173 100 l-169 98 -161 -20 c-88 -11 -163 -19 -166 -17 -3 2
-34 70 -69 152 l-62 149 -125 72 -126 71 -160 -20 c-88 -12 -162 -18 -166 -15
-3 4 -33 72 -67 153 l-62 146 -210 121 -210 120 -1 140 c0 315 -97 566 -299
773 -46 48 -63 62 -45 37z"/>
</g>
</svg>
