<?xml version="1.0"?>
<svg xmlns="http://www.w3.org/2000/svg" xmlns:xlink="http://www.w3.org/1999/xlink" xmlns:svgjs="http://svgjs.com/svgjs" version="1.1" width="512" height="512" x="0" y="0" viewBox="0 0 512 512" style="enable-background:new 0 0 512 512" xml:space="preserve" class=""><g transform="matrix(0.8999999999999999,0,0,0.9,25.60009765624997,25.60000076293943)">
<g xmlns="http://www.w3.org/2000/svg">
	<g>
		<path d="M461.913,55.652H50.087C22.468,55.652,0,78.12,0,105.739v267.13c0,27.619,22.468,50.087,50.087,50.087h16.696v16.696    c0,9.223,7.473,16.696,16.696,16.696s16.696-7.473,16.696-16.696v-16.696h311.652v16.696c0,9.223,7.473,16.696,16.696,16.696    c9.223,0,16.696-7.473,16.696-16.696v-16.696h16.696c27.619,0,50.087-22.468,50.087-50.087v-267.13    C512,78.12,489.532,55.652,461.913,55.652z M378.435,339.478c0,9.223-7.473,16.696-16.696,16.696H83.478    c-9.223,0-16.696-7.473-16.696-16.696V139.13c0-9.223,7.473-16.696,16.696-16.696h278.261c9.223,0,16.696,7.473,16.696,16.696    V339.478z M445.217,122.435c9.22,0,16.696,7.475,16.696,16.696s-7.475,16.696-16.696,16.696c-9.22,0-16.696-7.475-16.696-16.696    S435.997,122.435,445.217,122.435z M445.217,189.217c9.22,0,16.696,7.475,16.696,16.696c0,9.22-7.475,16.696-16.696,16.696    c-9.22,0-16.696-7.475-16.696-16.696C428.522,196.693,435.997,189.217,445.217,189.217z M461.913,356.174h-33.391    c-9.223,0-16.696-7.473-16.696-16.696c0-9.223,7.473-16.696,16.696-16.696h33.391c9.223,0,16.696,7.473,16.696,16.696    C478.609,348.701,471.136,356.174,461.913,356.174z M461.913,289.391h-33.391c-9.223,0-16.696-7.473-16.696-16.696    c0-9.223,7.473-16.696,16.696-16.696h33.391c9.223,0,16.696,7.473,16.696,16.696C478.609,281.918,471.136,289.391,461.913,289.391    z" fill="#ffffff" data-original="#000000" style="" class=""/>
	</g>
</g>
<g xmlns="http://www.w3.org/2000/svg">
	<g>
		<path d="M328.348,189.217c-9.22,0-16.696,7.475-16.696,16.696v66.783c0,9.22,7.475,16.696,16.696,16.696    s16.696-7.475,16.696-16.696v-66.783C345.043,196.693,337.568,189.217,328.348,189.217z" fill="#ffffff" data-original="#000000" style="" class=""/>
	</g>
</g>
<g xmlns="http://www.w3.org/2000/svg">
</g>
<g xmlns="http://www.w3.org/2000/svg">
</g>
<g xmlns="http://www.w3.org/2000/svg">
</g>
<g xmlns="http://www.w3.org/2000/svg">
</g>
<g xmlns="http://www.w3.org/2000/svg">
</g>
<g xmlns="http://www.w3.org/2000/svg">
</g>
<g xmlns="http://www.w3.org/2000/svg">
</g>
<g xmlns="http://www.w3.org/2000/svg">
</g>
<g xmlns="http://www.w3.org/2000/svg">
</g>
<g xmlns="http://www.w3.org/2000/svg">
</g>
<g xmlns="http://www.w3.org/2000/svg">
</g>
<g xmlns="http://www.w3.org/2000/svg">
</g>
<g xmlns="http://www.w3.org/2000/svg">
</g>
<g xmlns="http://www.w3.org/2000/svg">
</g>
<g xmlns="http://www.w3.org/2000/svg">
</g>
</g></svg>
