<?xml version="1.0"?>
<svg xmlns="http://www.w3.org/2000/svg" xmlns:xlink="http://www.w3.org/1999/xlink" xmlns:svgjs="http://svgjs.com/svgjs" version="1.1" width="512" height="512" x="0" y="0" viewBox="0 0 510.199 510.199" style="enable-background:new 0 0 512 512" xml:space="preserve" class=""><g transform="matrix(0.9700000000000001,0,0,0.9700000000000001,7.652970914840665,7.566955261230447)"><g xmlns="http://www.w3.org/2000/svg"><path d="m315.97 460.777c-18.701 0-34.515-14.435-35.927-33.388l-1.531-20.559c-3.45-.016-2.309-.014-6.03.002l17.133 60.643c2.86 1.685 5.377 3.408 7.666 4.977 6.633 4.546 9.661 6.621 18.169 6.621 8.509 0 11.537-2.075 18.17-6.622 8.659-5.935 20.518-14.063 42.189-14.063 20.053 0 31.702 6.958 40.191 12.699 57.744-17.98 92.008-43.252 86.922-56.1-6.129-17.551-68.437-12.208-152.173-9.387l1.224 16.43c1.558 20.908-14.971 38.747-36.003 38.747z" fill="#ffffff" data-original="#000000" style=""/><path d="m110.519 462.377c6.374-2.345 14.124-3.987 23.859-3.987 21.671 0 33.53 8.128 42.189 14.063 6.633 4.546 9.661 6.621 18.169 6.621s11.535-2.075 18.168-6.621c5.736-3.931 12.878-8.822 23.342-11.678-19.319-.039-35.286-15.374-35.947-34.839l-.692-20.368c-83.226-2.829-145.061-8.059-151.166 9.421-4.307 10.877 19.6 30.663 62.078 47.388z" fill="#ffffff" data-original="#000000" style=""/><path d="m130.038 100.548 19.119 11.504-13.095-46.351c-5.034 1.021-9.644 4.049-12.501 8.797-5.405 8.982-2.506 20.645 6.477 26.05z" fill="#ffffff" data-original="#000000" style=""/><g><path d="m229.493 152.823c.006.002.011.004.017.005-.006-.001-.011-.003-.017-.005z" fill="#ffffff" data-original="#000000" style=""/><path d="m338.723 423.019-12.635-169.641h.07v-136.345c0-14.677-11.898-26.575-26.575-26.575h-36.416c-7.045 0-14.038 1.216-20.669 3.596l-31.085 11.153-29.093-17.505 11.489 40.666 35.222 11.797 37.602-16.162-37.078 28.842c-.01-.003-.026-.009-.047-.016.019.006.034.012.046.016-.072-.024-.129-.043-.179-.06.042.014.083.028.117.039-.866-.29-9.402-3.149-62.204-20.833-8.983-3.002-18.977 1.099-23.135 9.827-.078.163-.159.323-.232.489-4.614 10.45.955 22.213 11.32 25.684l71.909 24.084c5.985 2.006 12.664.88 17.675-3.011.002-.002.005-.003.007-.005l40.943-31.848-31.717 39.296c-3.108 3.85-11.632 8.409-20.883 8.409-2.557 0-5.09-.322-7.559-.948v36.991l31 109.726-.909-26.753 17.326-70.551h7.372l12.887 173.025c.932 12.517 11.829 21.957 24.406 21.022 12.547-.937 21.959-11.864 21.025-24.409zm-109.561-270.307c-.011-.004-.01-.003 0 0zm.12.04c-.064-.021-.104-.035-.119-.04.019.007.065.022.119.04z" fill="#ffffff" data-original="#000000" style=""/></g><path d="m243.59 446.306-33.31-117.904 3.298 97.082c.52 15.297 15.651 25.635 30.012 20.822z" fill="#ffffff" data-original="#000000" style=""/><ellipse cx="275.682" cy="39.339" rx="39.339" ry="39.339" transform="matrix(.987 -.16 .16 .987 -2.742 44.667)" fill="#ffffff" data-original="#000000" style=""/><path d="m276.091 461.405-75.027-265.564-18.144-6.077 75.916 268.711c6.671.301 12.346 1.396 17.255 2.93z" fill="#ffffff" data-original="#000000" style=""/><path d="m162.989 119.217c2.74.154 5.45.653 8.075 1.532l9.703 3.25-30.876-109.288c-1.186-4.202-5.556-6.644-9.755-5.458-4.201 1.187-6.645 5.555-5.458 9.756z" fill="#ffffff" data-original="#000000" style=""/><path d="m496.535 469.753c-18.151 0-27.918 6.694-35.767 12.073-7.021 4.812-12.566 8.612-24.596 8.612s-17.574-3.8-24.595-8.612c-7.849-5.378-17.616-12.073-35.768-12.073-18.151 0-27.918 6.694-35.766 12.073-7.02 4.812-12.565 8.612-24.594 8.612s-17.573-3.8-24.593-8.611c-7.848-5.379-17.615-12.073-35.765-12.073s-27.917 6.694-35.764 12.073c-7.02 4.811-12.564 8.611-24.592 8.611-12.029 0-17.573-3.8-24.593-8.611-7.848-5.379-17.615-12.073-35.765-12.073s-27.917 6.694-35.765 12.073c-7.02 4.811-12.564 8.611-24.593 8.611-12.028 0-17.572-3.8-24.592-8.611-7.848-5.379-17.614-12.073-35.764-12.073-5.457 0-9.881 4.424-9.881 9.881s4.424 9.881 9.881 9.881c12.028 0 17.572 3.8 24.592 8.611 7.848 5.379 17.614 12.073 35.764 12.073s27.917-6.694 35.765-12.073c7.02-4.811 12.564-8.611 24.593-8.611s17.573 3.8 24.593 8.611c7.848 5.379 17.615 12.073 35.765 12.073s27.917-6.694 35.764-12.073c7.02-4.811 12.564-8.611 24.592-8.611 12.029 0 17.573 3.8 24.593 8.611 7.848 5.379 17.615 12.073 35.765 12.073 18.151 0 27.918-6.694 35.766-12.073 7.02-4.812 12.565-8.612 24.594-8.612 12.03 0 17.575 3.8 24.596 8.612 7.849 5.378 17.616 12.073 35.767 12.073 18.152 0 27.919-6.694 35.768-12.073 7.021-4.812 12.565-8.612 24.595-8.612 5.457 0 9.881-4.424 9.881-9.881s-4.425-9.881-9.881-9.881z" fill="#ffffff" data-original="#000000" style=""/></g></g></svg>
