<?xml version="1.0"?>
<svg xmlns="http://www.w3.org/2000/svg" xmlns:xlink="http://www.w3.org/1999/xlink" xmlns:svgjs="http://svgjs.com/svgjs" version="1.1" width="512" height="512" x="0" y="0" viewBox="0 0 512.00032 512" style="enable-background:new 0 0 512 512" xml:space="preserve" class=""><g transform="matrix(0.91,0,0,0.9100000000000001,23.040002231597867,22.082036089897116)"><path xmlns="http://www.w3.org/2000/svg" d="m500.90625 130.617188-234.6875-128.011719c-6.371094-3.472657-14.0625-3.472657-20.433594 0l-234.6875 128.011719c-8.703125 4.746093-13.042968 15.210937-10.261718 24.722656 2.628906 8.988281 11.113281 15.34375 20.476562 15.34375h469.375c9.363281 0 17.851562-6.355469 20.476562-15.34375 2.78125-9.511719-1.558593-19.976563-10.257812-24.722656zm-308.910156 18.730468 64.003906-128.011718 64.007812 128.011718zm0 0" fill="#ffffff" data-original="#000000" style="" class=""/><path xmlns="http://www.w3.org/2000/svg" d="m427.097656 315.84375-17.90625 89.527344h-89.183594v85.339844h42.667969v-42.671876h42.671875v42.671876h42.671875v-61.894532l20.917969-104.605468zm0 0" fill="#ffffff" data-original="#000000" style="" class=""/><path xmlns="http://www.w3.org/2000/svg" d="m84.902344 315.84375-41.839844 8.367188 20.921875 104.605468v61.894532h42.667969v-42.671876h42.671875v42.671876h42.671875v-85.339844h-89.1875zm0 0" fill="#ffffff" data-original="#000000" style="" class=""/><path xmlns="http://www.w3.org/2000/svg" d="m341.339844 384.035156v-42.671875h-64.003906v-149.34375h-42.671876v149.34375h-64.003906v42.671875h64.003906v106.675782h42.671876v-106.675782zm0 0" fill="#ffffff" data-original="#000000" style="" class=""/></g></svg>
