<?xml version="1.0"?>
<svg xmlns="http://www.w3.org/2000/svg" xmlns:xlink="http://www.w3.org/1999/xlink" xmlns:svgjs="http://svgjs.com/svgjs" version="1.1" width="512" height="512" x="0" y="0" viewBox="0 0 512 512" style="enable-background:new 0 0 512 512" xml:space="preserve" class=""><g transform="matrix(0.8500000000000001,0,0,0.8500000000000001,38.39999999999998,38.39999999999998)">
<g xmlns="http://www.w3.org/2000/svg">
	<g>
		<path d="M384.698,0H127.303C57.108,0,0,57.108,0,127.303v257.395C0,454.892,57.108,512,127.303,512h257.395    C454.892,512,512,454.892,512,384.697V127.303C512,57.108,454.892,0,384.698,0z M481.991,384.698    c0,53.648-43.646,97.294-97.294,97.294H127.303c-53.648,0-97.294-43.646-97.294-97.294V127.303    c0-53.648,43.646-97.294,97.294-97.294h257.395c53.648,0,97.294,43.646,97.294,97.294V384.698z" fill="#ffffff" data-original="#000000" style="" class=""/>
	</g>
</g>
<g xmlns="http://www.w3.org/2000/svg">
	<g>
		<path d="M155.517,73.683c-44.55,0-80.794,36.244-80.794,80.794s36.244,80.794,80.794,80.794c44.55,0,80.794-36.244,80.794-80.794    S200.066,73.683,155.517,73.683z M155.517,205.261c-28.003,0-50.785-22.782-50.785-50.785c0-28.003,22.782-50.785,50.785-50.785    c28.003,0,50.785,22.782,50.785,50.785C206.302,182.479,183.519,205.261,155.517,205.261z" fill="#ffffff" data-original="#000000" style="" class=""/>
	</g>
</g>
<g xmlns="http://www.w3.org/2000/svg">
	<g>
		<path d="M356.62,73.683c-44.55,0-80.794,36.244-80.794,80.794s36.244,80.794,80.794,80.794c44.55,0,80.794-36.244,80.794-80.794    S401.169,73.683,356.62,73.683z M356.62,205.261c-28.003,0-50.785-22.782-50.785-50.785c0-28.003,22.782-50.785,50.785-50.785    c28.003,0,50.785,22.782,50.785,50.785C407.405,182.479,384.622,205.261,356.62,205.261z" fill="#ffffff" data-original="#000000" style="" class=""/>
	</g>
</g>
<g xmlns="http://www.w3.org/2000/svg">
	<g>
		<path d="M155.517,275.742c-44.55,0-80.794,36.244-80.794,80.794c0,44.55,36.244,80.794,80.794,80.794    c44.55,0,80.794-36.244,80.794-80.794C236.311,311.986,200.066,275.742,155.517,275.742z M155.517,407.32    c-28.003,0-50.785-22.782-50.785-50.785c0-28.003,22.782-50.785,50.785-50.785c28.003,0,50.785,22.782,50.785,50.785    C206.302,384.538,183.519,407.32,155.517,407.32z" fill="#ffffff" data-original="#000000" style="" class=""/>
	</g>
</g>
<g xmlns="http://www.w3.org/2000/svg">
	<g>
		<path d="M356.62,275.742c-44.55,0-80.794,36.244-80.794,80.794c0,44.55,36.244,80.794,80.794,80.794    c44.55,0,80.794-36.244,80.794-80.794C437.414,311.986,401.169,275.742,356.62,275.742z M356.62,407.32    c-28.003,0-50.785-22.782-50.785-50.785c0-28.003,22.782-50.785,50.785-50.785c28.003,0,50.785,22.782,50.785,50.785    C407.405,384.538,384.622,407.32,356.62,407.32z" fill="#ffffff" data-original="#000000" style="" class=""/>
	</g>
</g>
<g xmlns="http://www.w3.org/2000/svg">
</g>
<g xmlns="http://www.w3.org/2000/svg">
</g>
<g xmlns="http://www.w3.org/2000/svg">
</g>
<g xmlns="http://www.w3.org/2000/svg">
</g>
<g xmlns="http://www.w3.org/2000/svg">
</g>
<g xmlns="http://www.w3.org/2000/svg">
</g>
<g xmlns="http://www.w3.org/2000/svg">
</g>
<g xmlns="http://www.w3.org/2000/svg">
</g>
<g xmlns="http://www.w3.org/2000/svg">
</g>
<g xmlns="http://www.w3.org/2000/svg">
</g>
<g xmlns="http://www.w3.org/2000/svg">
</g>
<g xmlns="http://www.w3.org/2000/svg">
</g>
<g xmlns="http://www.w3.org/2000/svg">
</g>
<g xmlns="http://www.w3.org/2000/svg">
</g>
<g xmlns="http://www.w3.org/2000/svg">
</g>
</g></svg>
