<?xml version="1.0"?>
<svg xmlns="http://www.w3.org/2000/svg" xmlns:xlink="http://www.w3.org/1999/xlink" xmlns:svgjs="http://svgjs.com/svgjs" version="1.1" width="512" height="512" x="0" y="0" viewBox="0 0 512 512" style="enable-background:new 0 0 512 512" xml:space="preserve" class=""><g transform="matrix(0.9500000000000001,0,0,0.9500000000000001,12.799999999999983,12.799999999999983)">
<g xmlns="http://www.w3.org/2000/svg">
	<g>
		<path d="M497,150h-20.363l1.027-9.419c1.597-12.803-2.373-25.679-10.913-35.361c-4.865-5.508-11.017-9.492-17.739-12.063    C435.244,109.431,414.934,120,392,120c-22.934,0-43.244-10.569-57.012-26.843c-6.722,2.571-12.874,6.555-17.739,12.063    c-8.54,9.683-12.51,22.559-10.942,35.127L307.36,150H204.637l1.027-9.419c1.597-12.803-2.373-25.679-10.913-35.361    c-4.865-5.508-11.017-9.492-17.739-12.063C163.244,109.431,142.934,120,120,120s-43.244-10.569-57.012-26.843    c-6.722,2.571-12.874,6.555-17.739,12.063c-8.54,9.683-12.51,22.559-10.942,35.127L35.359,150H15c-8.284,0-15,6.716-15,15    s6.716,15,15,15c3.907,0,482,0,482,0c8.284,0,15-6.716,15-15S505.284,150,497,150z" fill="#ffffff" data-original="#000000" style="" class=""/>
	</g>
</g>
<g xmlns="http://www.w3.org/2000/svg">
	<g>
		<path d="M180,392H60c-16.569,0-30,13.431-30,30c0,16.569,13.431,30,30,30h120c16.569,0,30-13.431,30-30    C210,405.431,196.569,392,180,392z" fill="#ffffff" data-original="#000000" style="" class=""/>
	</g>
</g>
<g xmlns="http://www.w3.org/2000/svg">
	<g>
		<polygon points="51.727,301 58.273,362 181.727,362 188.273,301   " fill="#ffffff" data-original="#000000" style="" class=""/>
	</g>
</g>
<g xmlns="http://www.w3.org/2000/svg">
	<g>
		<polygon points="41.907,210 48.453,271 191.545,271 198.091,210   " fill="#ffffff" data-original="#000000" style="" class=""/>
	</g>
</g>
<g xmlns="http://www.w3.org/2000/svg">
	<g>
		<circle cx="120" cy="45" r="45" fill="#ffffff" data-original="#000000" style="" class=""/>
	</g>
</g>
<g xmlns="http://www.w3.org/2000/svg">
	<g>
		<polygon points="323.727,301 330.273,362 453.727,362 460.273,301   " fill="#ffffff" data-original="#000000" style="" class=""/>
	</g>
</g>
<g xmlns="http://www.w3.org/2000/svg">
	<g>
		<polygon points="313.907,210 320.453,271 463.545,271 470.091,210   " fill="#ffffff" data-original="#000000" style="" class=""/>
	</g>
</g>
<g xmlns="http://www.w3.org/2000/svg">
	<g>
		<circle cx="392" cy="45" r="45" fill="#ffffff" data-original="#000000" style="" class=""/>
	</g>
</g>
<g xmlns="http://www.w3.org/2000/svg">
	<g>
		<circle cx="467" cy="467" r="45" fill="#ffffff" data-original="#000000" style="" class=""/>
	</g>
</g>
<g xmlns="http://www.w3.org/2000/svg">
	<g>
		<path d="M452,392H332c-16.569,0-30,13.431-30,30c0,16.569,13.431,30,30,30h61.518c6.31-30.961,31.849-54.716,63.492-58.989    C455.318,392.714,453.776,392,452,392z" fill="#ffffff" data-original="#000000" style="" class=""/>
	</g>
</g>
<g xmlns="http://www.w3.org/2000/svg">
</g>
<g xmlns="http://www.w3.org/2000/svg">
</g>
<g xmlns="http://www.w3.org/2000/svg">
</g>
<g xmlns="http://www.w3.org/2000/svg">
</g>
<g xmlns="http://www.w3.org/2000/svg">
</g>
<g xmlns="http://www.w3.org/2000/svg">
</g>
<g xmlns="http://www.w3.org/2000/svg">
</g>
<g xmlns="http://www.w3.org/2000/svg">
</g>
<g xmlns="http://www.w3.org/2000/svg">
</g>
<g xmlns="http://www.w3.org/2000/svg">
</g>
<g xmlns="http://www.w3.org/2000/svg">
</g>
<g xmlns="http://www.w3.org/2000/svg">
</g>
<g xmlns="http://www.w3.org/2000/svg">
</g>
<g xmlns="http://www.w3.org/2000/svg">
</g>
<g xmlns="http://www.w3.org/2000/svg">
</g>
</g></svg>
