<?xml version="1.0"?>
<svg xmlns="http://www.w3.org/2000/svg" xmlns:xlink="http://www.w3.org/1999/xlink" xmlns:svgjs="http://svgjs.com/svgjs" version="1.1" width="512" height="512" x="0" y="0" viewBox="0 0 512.003 512.003" style="enable-background:new 0 0 512 512" xml:space="preserve" class=""><g transform="matrix(0.97,0,0,0.97,7.680030183792098,7.680046234130856)"><g xmlns="http://www.w3.org/2000/svg"><path d="m426.31 434.129c-29.44.37-56.42 11.18-77.4 28.88 13.6 28.78 43.13 48.99 77.35 48.99h.05c35.16-.02 65.18-21.36 78.21-50.96-21-16.84-47.65-26.93-76.6-26.93-.54 0-1.08 0-1.61.02z" fill="#ffffff" data-original="#000000" style="" class=""/><path d="m426.31 340.819h-.05c-50.55 0-88.82 43.57-85.43 90.63 24.31-16.94 53.75-27 85.48-27.32.54-.02 1.07-.02 1.61-.02 30.96 0 59.78 9.26 83.87 25.16 3.35-42.09-33.21-88.42-85.48-88.45z" fill="#ffffff" data-original="#000000" style="" class=""/><path d="m362.911 315.956c60.714-29.708 109.048-91.69 115.792-161.564 8.974-93.054-60.081-162.603-153.587-153.604-91.078 8.792-171.208 88.913-180.002 180.023-1.45 15.039-.892 29.607 1.568 43.431-5.177 36.014-20.772 61.838-31.024 75.461 0 .001.001.003.001.004-6.919 9.2 1.84-.19-111.273 112.926-5.849 5.86-5.849 15.349 0 21.209 4.483 4.483 37.914 37.919 42.423 42.428 5.839 5.84 15.338 5.87 21.207 0 112.842-113.316 104.134-105.086 112.392-111.496 13.338-10.359 38.976-26.427 74.908-31.921 32.852 5.833 70.968 1.034 107.595-16.897zm-182.606-159.768 33.161 33.165-35.894 35.898c-5.134-21.638-4.138-45.491 2.733-69.063zm9.452 99.3 44.918-44.924 34.279 34.283-44.907 44.912c-13.685-8.205-25.549-19.688-34.29-34.271zm80.506-207.314 42.182 42.187-28.285 28.289-47.642-47.648c10.665-9.096 22.022-16.724 33.745-22.828zm63.392 63.399 17.568 17.57 16.711 16.713-28.285 28.288c-20.818-20.818-13.188-13.188-34.28-34.282zm109.857 67.442-33.157-33.161 35.894-35.898c5.389 22.717 3.796 46.643-2.737 69.059zm-125.07 16.34-28.28 28.284c-17.203-17.205-16.955-16.957-34.279-34.283l28.281-28.284zm-64.165 106.596 35.887-35.891 33.157 33.161c-23.567 6.868-47.412 7.865-69.044 2.73zm99.272-14.917-42.179-42.184 28.28-28.284 47.652 47.657c-10.666 9.094-22.029 16.709-33.753 22.811zm54.959-44.03-47.648-47.649 28.283-28.287 42.181 42.186c-6.101 11.724-13.725 23.083-22.816 33.75zm25.556-163.285-44.918 44.924c-17.203-17.205-16.955-16.957-34.279-34.283l44.918-44.923c14.556 8.726 26.101 20.645 34.279 34.282zm-64.512-46.471-35.895 35.9-33.159-33.163c22.415-6.535 46.336-8.13 69.054-2.737zm-154.246 58.959 47.647 47.652-28.281 28.284-42.177-42.182c6.103-11.723 13.718-23.087 22.811-33.754zm-7.673 222.744c-22.235 8.917-38.573 20.259-48.52 28.374-7.216-7.269-15.619-15.74-22.051-22.198.001-.002.003-.003.004-.005 7.998-10.041 19.11-26.468 27.808-48.765 5.6 9.045 12.895 18.275 22.013 26.789 6.638 6.202 13.52 11.357 20.759 15.801-.005.001-.009.003-.013.004z" fill="#ffffff" data-original="#000000" style="" class=""/></g></g></svg>
