<?xml version="1.0"?>
<svg xmlns="http://www.w3.org/2000/svg" xmlns:xlink="http://www.w3.org/1999/xlink" xmlns:svgjs="http://svgjs.com/svgjs" version="1.1" width="512" height="512" x="0" y="0" viewBox="0 0 64 64" style="enable-background:new 0 0 512 512" xml:space="preserve"><g transform="matrix(0.9700000000000001,0,0,0.9700000000000001,0.9599999999999973,0.9599999999999973)"><g xmlns="http://www.w3.org/2000/svg"><path d="m27.025 30.525h2.95v2.95h-2.95z" transform="matrix(.707 -.707 .707 .707 -14.28 29.525)" fill="#ffffff" data-original="#000000" style=""/><path d="m37.525 27.025h2.95v2.95h-2.95z" transform="matrix(.707 -.707 .707 .707 -8.73 35.925)" fill="#ffffff" data-original="#000000" style=""/><path d="m43.586 26h-2.172l1.086 1.086z" fill="#ffffff" data-original="#000000" style=""/><path d="m30.525 34.025h2.95v2.95h-2.95z" transform="matrix(.707 -.707 .707 .707 -15.73 33.025)" fill="#ffffff" data-original="#000000" style=""/><path d="m33 11h12v13h-12z" fill="#ffffff" data-original="#000000" style=""/><path d="m36.586 26h-2.172l1.086 1.086z" fill="#ffffff" data-original="#000000" style=""/><path d="m19 40h12v13h-12z" fill="#ffffff" data-original="#000000" style=""/><path d="m23.525 27.025h2.95v2.95h-2.95z" transform="matrix(.707 -.707 .707 .707 -12.83 26.025)" fill="#ffffff" data-original="#000000" style=""/><path d="m27.414 38h2.172l-1.086-1.086z" fill="#ffffff" data-original="#000000" style=""/><path d="m23.525 34.025h2.95v2.95h-2.95z" transform="matrix(.707 -.707 .707 .707 -17.78 28.075)" fill="#ffffff" data-original="#000000" style=""/><path d="m30.525 27.025h2.95v2.95h-2.95z" transform="matrix(.707 -.707 .707 .707 -10.78 30.975)" fill="#ffffff" data-original="#000000" style=""/><path d="m29.586 26h-2.172l1.086 1.086z" fill="#ffffff" data-original="#000000" style=""/><path d="m50.586 26h-2.172l1.086 1.086z" fill="#ffffff" data-original="#000000" style=""/><path d="m51.525 27.025h2.95v2.95h-2.95z" transform="matrix(.707 -.707 .707 .707 -4.629 45.824)" fill="#ffffff" data-original="#000000" style=""/><path d="m22.586 26h-2.172l1.086 1.086z" fill="#ffffff" data-original="#000000" style=""/><path d="m48.414 38h2.172l-1.086-1.086z" fill="#ffffff" data-original="#000000" style=""/><path d="m44.525 27.025h2.95v2.95h-2.95z" transform="matrix(.707 -.707 .707 .707 -6.68 40.874)" fill="#ffffff" data-original="#000000" style=""/><path d="m48.025 30.525h2.95v2.95h-2.95z" transform="matrix(.707 -.707 .707 .707 -8.129 44.374)" fill="#ffffff" data-original="#000000" style=""/><path d="m47 3h6v21h-6z" fill="#ffffff" data-original="#000000" style=""/><path d="m20.025 30.525h2.95v2.95h-2.95z" transform="matrix(.707 -.707 .707 .707 -16.33 24.575)" fill="#ffffff" data-original="#000000" style=""/><path d="m34.414 38h2.172l-1.086-1.086z" fill="#ffffff" data-original="#000000" style=""/><path d="m41.025 30.525h2.95v2.95h-2.95z" transform="matrix(.707 -.707 .707 .707 -10.18 39.425)" fill="#ffffff" data-original="#000000" style=""/><path d="m34.025 30.525h2.95v2.95h-2.95z" transform="matrix(.707 -.707 .707 .707 -12.23 34.475)" fill="#ffffff" data-original="#000000" style=""/><path d="m41.414 38h2.172l-1.086-1.086z" fill="#ffffff" data-original="#000000" style=""/><path d="m21.5 36.914-1.086 1.086h2.172z" fill="#ffffff" data-original="#000000" style=""/><path d="m9.525 34.025h2.95v2.95h-2.95z" transform="matrix(.707 -.707 .707 .707 -21.881 18.176)" fill="#ffffff" data-original="#000000" style=""/><path d="m19 55h26v6h-26z" fill="#ffffff" data-original="#000000" style=""/><path d="m44.525 34.025h2.95v2.95h-2.95z" transform="matrix(.707 -.707 .707 .707 -11.629 42.925)" fill="#ffffff" data-original="#000000" style=""/><path d="m16.525 34.025h2.95v2.95h-2.95z" transform="matrix(.707 -.707 .707 .707 -19.83 23.126)" fill="#ffffff" data-original="#000000" style=""/><path d="m11 40h6v21h-6z" fill="#ffffff" data-original="#000000" style=""/><path d="m47 40h6v21h-6z" fill="#ffffff" data-original="#000000" style=""/><path d="m33 40h12v13h-12z" fill="#ffffff" data-original="#000000" style=""/><path d="m59 24h2v16h-2z" fill="#ffffff" data-original="#000000" style=""/><path d="m57 27.586v-1.586h-1.586z" fill="#ffffff" data-original="#000000" style=""/><path d="m51.525 34.025h2.95v2.95h-2.95z" transform="matrix(.707 -.707 .707 .707 -9.579 47.874)" fill="#ffffff" data-original="#000000" style=""/><path d="m57 38v-1.586l-1.586 1.586z" fill="#ffffff" data-original="#000000" style=""/><path d="m54.414 32 2.086 2.086.5-.5v-3.172l-.5-.5z" fill="#ffffff" data-original="#000000" style=""/><path d="m9.586 32-2.086-2.086-.5.5v3.172l.5.5z" fill="#ffffff" data-original="#000000" style=""/><path d="m15.586 26h-2.172l1.086 1.086z" fill="#ffffff" data-original="#000000" style=""/><path d="m7 38h1.586l-1.586-1.586z" fill="#ffffff" data-original="#000000" style=""/><path d="m16.525 27.025h2.95v2.95h-2.95z" transform="matrix(.707 -.707 .707 .707 -14.881 21.075)" fill="#ffffff" data-original="#000000" style=""/><path d="m13.025 30.525h2.95v2.95h-2.95z" transform="matrix(.707 -.707 .707 .707 -18.381 19.626)" fill="#ffffff" data-original="#000000" style=""/><path d="m19 3h26v6h-26z" fill="#ffffff" data-original="#000000" style=""/><path d="m19 11h12v13h-12z" fill="#ffffff" data-original="#000000" style=""/><path d="m13.414 38h2.172l-1.086-1.086z" fill="#ffffff" data-original="#000000" style=""/><path d="m3 24h2v16h-2z" fill="#ffffff" data-original="#000000" style=""/><path d="m37.525 34.025h2.95v2.95h-2.95z" transform="matrix(.707 -.707 .707 .707 -13.68 37.975)" fill="#ffffff" data-original="#000000" style=""/><path d="m11 3h6v21h-6z" fill="#ffffff" data-original="#000000" style=""/><path d="m9.525 27.025h2.95v2.95h-2.95z" transform="matrix(.707 -.707 .707 .707 -16.931 16.126)" fill="#ffffff" data-original="#000000" style=""/><path d="m7 26v1.586l1.586-1.586z" fill="#ffffff" data-original="#000000" style=""/></g></g></svg>
