<?xml version="1.0"?>
<svg xmlns="http://www.w3.org/2000/svg" xmlns:xlink="http://www.w3.org/1999/xlink" xmlns:svgjs="http://svgjs.com/svgjs" version="1.1" width="512" height="512" x="0" y="0" viewBox="0 0 512 512" style="enable-background:new 0 0 512 512" xml:space="preserve" class=""><g transform="matrix(0.8800000000000001,0,0,0.8800000000000001,30.71999999999997,30.71999999999997)"><g xmlns="http://www.w3.org/2000/svg"><path d="m90 119.64v92.36h270v-92.36c24.56-15.55 30-32.6 30-44.64 0-57.35-106.82-75-165-75s-165 17.65-165 75c0 12.04 5.44 29.09 30 44.64zm175.61 4.75c5.85 5.86 5.85 15.36 0 21.22l-30 30c-5.86 5.85-15.36 5.86-21.22 0-5.85-5.86-5.85-15.36 0-21.22l30-30c5.86-5.85 15.36-5.85 21.22 0zm-111.22 0 60-60c5.86-5.85 15.36-5.85 21.22 0 5.85 5.86 5.85 15.36 0 21.22l-60 60c-5.86 5.85-15.36 5.86-21.22 0-5.85-5.86-5.85-15.36 0-21.22z" fill="#ffffff" data-original="#000000" style="" class=""/><path d="m497 302h-48.51c-6.96-34.19-37.26-60-73.49-60h-300c-41.35 0-75 33.65-75 75v180c0 8.28 6.72 15 15 15h420c8.28 0 15-6.72 15-15v-165h47c8.284 0 15-6.716 15-15s-6.716-15-15-15zm-422 30c-8.28 0-15-6.72-15-15s6.72-15 15-15 15 6.72 15 15-6.72 15-15 15zm60 0c-8.28 0-15-6.72-15-15s6.72-15 15-15 15 6.72 15 15-6.72 15-15 15z" fill="#ffffff" data-original="#000000" style="" class=""/></g></g></svg>
