<?xml version="1.0"?>
<svg xmlns="http://www.w3.org/2000/svg" xmlns:xlink="http://www.w3.org/1999/xlink" xmlns:svgjs="http://svgjs.com/svgjs" version="1.1" width="512" height="512" x="0" y="0" viewBox="0 0 297 297" style="enable-background:new 0 0 512 512" xml:space="preserve" class=""><g transform="matrix(0.9,0,0,0.9000000000000001,14.850005722045864,14.85005035400394)">
<g xmlns="http://www.w3.org/2000/svg">
	<path d="M146.774,75.328c-0.394-5.47-4.947-9.706-10.431-9.706H80.394c-5.484,0-10.037,4.236-10.431,9.706L54.799,285.791   c-0.208,2.896,0.797,5.75,2.776,7.876c1.978,2.126,4.751,3.333,7.655,3.333h86.276c0.006,0,0.014,0,0.02,0   c5.776,0,10.458-4.682,10.458-10.458c0-0.484-0.033-0.961-0.096-1.428L146.774,75.328z" fill="#ffffff" data-original="#000000" style="" class=""/>
	<path d="M88.76,51.243h39.216c0.01,0.001,0.015,0.001,0.02,0c5.776,0,10.458-4.683,10.458-10.458c0-0.879-0.108-1.734-0.313-2.55   l-4.631-25.465c-0.905-4.973-5.235-8.587-10.289-8.587H93.118c-5.112,0-9.475,3.696-10.316,8.738l-4.358,26.144   c-0.506,3.033,0.349,6.134,2.337,8.48C82.768,49.891,85.686,51.243,88.76,51.243z" fill="#ffffff" data-original="#000000" style="" class=""/>
	<path d="M231.77,0c-5.775,0-10.458,4.682-10.458,10.458v67.324l-16.719,50.156c-0.355,1.066-0.536,2.183-0.536,3.307v155.298   c0,5.775,4.683,10.458,10.458,10.458c5.775,0,10.458-4.682,10.458-10.458v-153.6l16.719-50.156   c0.355-1.066,0.536-2.182,0.536-3.307V10.458C242.228,4.682,237.545,0,231.77,0z" fill="#ffffff" data-original="#000000" style="" class=""/>
	<path d="M214.996,67.017V5.664c0-3.128-2.536-5.664-5.664-5.664h-15.774C187.783,0,183.1,4.682,183.1,10.458   c0,3.583,1.805,6.743,4.552,8.628c-2.748,1.885-4.552,5.044-4.552,8.628s1.805,6.743,4.552,8.628   c-2.748,1.885-4.552,5.044-4.552,8.628s1.805,6.743,4.552,8.628c-2.748,1.884-4.552,5.044-4.552,8.628   c0,5.775,4.683,10.458,10.458,10.458h15.774C212.46,72.681,214.996,70.145,214.996,67.017z" fill="#ffffff" data-original="#000000" style="" class=""/>
</g>
<g xmlns="http://www.w3.org/2000/svg">
</g>
<g xmlns="http://www.w3.org/2000/svg">
</g>
<g xmlns="http://www.w3.org/2000/svg">
</g>
<g xmlns="http://www.w3.org/2000/svg">
</g>
<g xmlns="http://www.w3.org/2000/svg">
</g>
<g xmlns="http://www.w3.org/2000/svg">
</g>
<g xmlns="http://www.w3.org/2000/svg">
</g>
<g xmlns="http://www.w3.org/2000/svg">
</g>
<g xmlns="http://www.w3.org/2000/svg">
</g>
<g xmlns="http://www.w3.org/2000/svg">
</g>
<g xmlns="http://www.w3.org/2000/svg">
</g>
<g xmlns="http://www.w3.org/2000/svg">
</g>
<g xmlns="http://www.w3.org/2000/svg">
</g>
<g xmlns="http://www.w3.org/2000/svg">
</g>
<g xmlns="http://www.w3.org/2000/svg">
</g>
</g></svg>
