<?xml version="1.0"?>
<svg xmlns="http://www.w3.org/2000/svg" xmlns:xlink="http://www.w3.org/1999/xlink" version="1.1" id="Capa_1" x="0px" y="0px" viewBox="0 0 357.376 357.376" style="enable-background:new 0 0 357.376 357.376;" xml:space="preserve" width="512px" height="512px" class=""><g transform="matrix(0.793456 0 0 0.793456 36.907 36.907)"><g>
	<g>
		<path d="M312.832,5.632c-2.733-3.456-6.86-5.519-11.264-5.632H55.808c-4.404,0.113-8.531,2.177-11.264,5.632    c-2.905,3.187-4.221,7.511-3.584,11.776l43.52,326.656c1.235,7.564,7.698,13.165,15.36,13.312h157.696    c7.662-0.147,14.125-5.748,15.36-13.312l43.52-326.656C317.053,13.143,315.737,8.819,312.832,5.632z M268.8,142.336l-12.8-5.12    c-12.87-6.996-27.338-10.524-41.984-10.24c-14.646-0.284-29.114,3.244-41.984,10.24c-8.84,4.61-18.705,6.901-28.672,6.656    c-9.96,0.179-19.81-2.108-28.672-6.656c-8.683-4.908-18.255-8.04-28.16-9.216l-12.8-97.28h209.92L268.8,142.336z" data-original="#000000" class="active-path" data-old_color="#000000" fill="#FFFFFF"/>
	</g>
</g></g> </svg>
