<?xml version="1.0"?>
<svg xmlns="http://www.w3.org/2000/svg" xmlns:xlink="http://www.w3.org/1999/xlink" xmlns:svgjs="http://svgjs.com/svgjs" version="1.1" width="512" height="512" x="0" y="0" viewBox="0 0 512.017 512.017" style="enable-background:new 0 0 512 512" xml:space="preserve" class=""><g><g xmlns="http://www.w3.org/2000/svg"><path d="m433.874 210.658c-32.699-23.806-81.716-25.157-131.118-3.615-62.023 28.847-97.488 86.168-123.715 137.885 30.786.681 47.421 10.567 59.758 17.134 5.44 2.896 11.51 4.424 17.673 4.391 8.626-.046 11.076-1.362 18.872-5.548 11.865-6.371 27.867-14.956 55.739-15.925-12.868-20.119-16.317-42.879-9.353-66.097 10.55-35.173 41.957-60.702 74.678-60.702 40.691-.632 64.146 21.585 68.931 56.127.031.204.335.174.328-.033-.858-26.441-11.266-48.673-31.793-63.617z" fill="#ffffff" data-original="#000000" style="" class=""/><path d="m94.85 366.453c6.141.033 12.195-1.477 17.616-4.362 7.929-4.219 17.632-9.819 31.729-13.466 29.981-70.798 87.624-145.971 146.572-169.079 99.203-46.511 217.881 1.164 205.142 114.967 23.112-50.149 23.551-100.984-13.166-140.663-51.299-54.888-162.504-67.777-258.671-29.982-97.645 38.376-163.226 149.31-196.924 221.525 23.673 2.014 37.984 9.687 48.831 15.511 7.796 4.187 10.247 5.503 18.871 5.549z" fill="#ffffff" data-original="#000000" style="" class=""/><path d="m497.13 460.247c-23.941-.024-36.402 6.666-47.394 12.568-9.364 5.028-16.761 8.999-33.073 8.999s-23.709-3.971-33.073-8.999c-27.034-16.809-67.565-16.77-94.527 0-9.364 5.028-16.76 8.999-33.071 8.999s-23.707-3.971-33.07-8.999c-27.005-16.818-67.646-16.75-94.522.001-9.363 5.027-16.758 8.998-33.068 8.998-16.311 0-23.706-3.971-33.069-8.999-10.991-5.902-23.452-12.592-47.391-12.568-6.448.007-12.281 4.136-14.158 10.306-3.129 10.283 4.48 19.694 14.286 19.694 16.31 0 23.706 3.971 33.069 8.999 27.065 16.814 67.541 16.771 94.522-.001 9.363-5.027 16.758-8.998 33.067-8.998 16.311 0 23.707 3.971 33.07 8.999 26.983 16.815 67.66 16.749 94.524-.001 9.364-5.027 16.76-8.998 33.071-8.998 16.312 0 23.708 3.971 33.073 8.999 26.995 16.815 67.655 16.75 94.529-.001 9.364-5.027 16.761-8.998 33.073-8.998 19.427-.501 20.316-29.17.132-30z" fill="#ffffff" data-original="#000000" style="" class=""/><path d="m70.084 140.342c38.644 0 70.083-31.52 70.083-70.264-3.852-93.215-136.329-93.188-140.167.001 0 38.743 31.44 70.263 70.084 70.263z" fill="#ffffff" data-original="#000000" style="" class=""/><path d="m497.13 373.887c-23.941-.024-36.402 6.666-47.394 12.568-9.365 5.028-16.761 8.999-33.074 8.999s-23.709-3.971-33.074-8.999c-26.984-16.814-67.66-16.749-94.526.001-9.364 5.027-16.76 8.998-33.071 8.998s-23.707-3.971-33.07-8.999c-26.983-16.814-67.657-16.75-94.521.001-9.363 5.027-16.758 8.998-33.068 8.998-16.311 0-23.706-3.971-33.069-8.999-10.992-5.902-23.452-12.592-47.392-12.568-6.449.007-12.282 4.137-14.158 10.307-3.128 10.283 4.481 19.693 14.287 19.693 16.311 0 23.706 3.971 33.07 8.999 26.983 16.814 67.657 16.75 94.521-.001 9.363-5.027 16.758-8.998 33.067-8.998 16.311 0 23.707 3.971 33.07 8.999 27.033 16.81 67.564 16.769 94.524 0 9.364-5.028 16.76-8.999 33.071-8.999 16.312 0 23.708 3.971 33.073 8.999 27.034 16.809 67.568 16.769 94.529 0 9.365-5.028 16.761-8.999 33.074-8.999 19.448-.512 20.297-29.176.131-30z" fill="#ffffff" data-original="#000000" style="" class=""/></g></g></svg>
