<?xml version="1.0"?>
<svg xmlns="http://www.w3.org/2000/svg" xmlns:xlink="http://www.w3.org/1999/xlink" version="1.1" id="Capa_1" x="0px" y="0px" viewBox="0 0 512 512" style="enable-background:new 0 0 512 512;" xml:space="preserve" width="512px" height="512px" class=""><g transform="matrix(0.904382 0 0 0.904382 24.4782 24.4782)"><g>
	<g>
		<path d="M494.14,14.884H17.86C7.996,14.884,0,22.879,0,32.744v446.512c0,9.865,7.996,17.86,17.86,17.86H494.14    c9.865,0,17.86-7.996,17.86-17.86V32.744C512,22.879,504.004,14.884,494.14,14.884z M476.279,461.395H35.721V50.605h440.558    V461.395z" data-original="#000000" class="active-path" data-old_color="#000000" fill="#FFFFFF"/>
	</g>
</g><g>
	<g>
		<rect x="17.86" y="122.047" width="476.279" height="35.721" data-original="#000000" class="active-path" data-old_color="#000000" fill="#FFFFFF"/>
	</g>
</g><g>
	<g>
		<circle cx="136.93" cy="86.326" r="23.219" data-original="#000000" class="active-path" data-old_color="#000000" fill="#FFFFFF"/>
	</g>
</g><g>
	<g>
		<circle cx="196.465" cy="86.326" r="23.219" data-original="#000000" class="active-path" data-old_color="#000000" fill="#FFFFFF"/>
	</g>
</g><g>
	<g>
		<circle cx="77.395" cy="86.326" r="23.219" data-original="#000000" class="active-path" data-old_color="#000000" fill="#FFFFFF"/>
	</g>
</g><g>
	<g>
		<path d="M410.195,224.447H101.805c-9.865,0-17.86,7.995-17.86,17.86c0,9.865,7.995,17.86,17.86,17.86h308.391    c9.871,0,17.86-7.995,17.86-17.86C428.056,232.442,420.06,224.447,410.195,224.447z" data-original="#000000" class="active-path" data-old_color="#000000" fill="#FFFFFF"/>
	</g>
</g><g>
	<g>
		<path d="M410.195,295.888H101.805c-9.865,0-17.86,7.996-17.86,17.86s7.995,17.86,17.86,17.86h308.391    c9.871,0,17.86-7.996,17.86-17.86S420.06,295.888,410.195,295.888z" data-original="#000000" class="active-path" data-old_color="#000000" fill="#FFFFFF"/>
	</g>
</g><g>
	<g>
		<path d="M410.195,367.33H101.805c-9.865,0-17.86,7.996-17.86,17.86s7.995,17.86,17.86,17.86h308.391    c9.871,0,17.86-7.996,17.86-17.86S420.06,367.33,410.195,367.33z" data-original="#000000" class="active-path" data-old_color="#000000" fill="#FFFFFF"/>
	</g>
</g></g> </svg>
