<?xml version="1.0"?>
<svg xmlns="http://www.w3.org/2000/svg" xmlns:xlink="http://www.w3.org/1999/xlink" xmlns:svgjs="http://svgjs.com/svgjs" version="1.1" width="512" height="512" x="0" y="0" viewBox="0 0 511 511.99973" style="enable-background:new 0 0 512 512" xml:space="preserve" class=""><g transform="matrix(0.7799999999999999,0,0,0.7799999999999999,56.4287109375,56.320111670494214)"><path xmlns="http://www.w3.org/2000/svg" d="m16.5 512h89.996094v-150.996094h-105.996094v135.996094c0 8.289062 7.707031 15 16 15zm37.46875-91c8.285156 0 15 6.714844 15 15s-6.714844 15-15 15-15-6.714844-15-15 6.71875-15 15-15zm0 0" fill="#ffffff" data-original="#000000" style="" class=""/><path xmlns="http://www.w3.org/2000/svg" d="m241.496094 361.003906h-105v150.996094h105zm-52.53125 89.996094c-8.28125 0-15-6.714844-15-15s6.71875-15 15-15c8.285156 0 15 6.714844 15 15s-6.714844 15-15 15zm0 0" fill="#ffffff" data-original="#000000" style="" class=""/><path xmlns="http://www.w3.org/2000/svg" d="m376.492188 361.003906h-105v150.996094h105zm-52.527344 89.996094c-8.285156 0-15-6.714844-15-15s6.714844-15 15-15 14.996094 6.714844 14.996094 15-6.710938 15-14.996094 15zm0 0" fill="#ffffff" data-original="#000000" style="" class=""/><path xmlns="http://www.w3.org/2000/svg" d="m406.492188 512h89.996093c8.292969 0 16-6.710938 16-15v-135.996094h-105.996093zm53.46875-91c8.285156 0 15 6.714844 15 15s-6.714844 15-15 15c-8.285157 0-15-6.714844-15-15s6.714843-15 15-15zm0 0" fill="#ffffff" data-original="#000000" style="" class=""/><path xmlns="http://www.w3.org/2000/svg" d="m497.488281 270.003906h-480.988281c-8.292969 0-16 6.710938-16 15v46h511.988281v-46c0-8.289062-6.707031-15-15-15zm0 0" fill="#ffffff" data-original="#000000" style="" class=""/><path xmlns="http://www.w3.org/2000/svg" d="m301.492188 45.011719c0 24.851562-20.144532 44.996093-44.996094 44.996093-24.855469 0-45-20.144531-45-44.996093 0-24.855469 20.144531-45.0000002 45-45.0000002 24.851562 0 44.996094 20.1445312 44.996094 45.0000002zm0 0" fill="#ffffff" data-original="#000000" style="" class=""/><path xmlns="http://www.w3.org/2000/svg" d="m376.492188 240.003906v-59.996094c0-33.089843-26.910157-60-60-60h-119.996094c-33.089844 0-60 26.910157-60 60v59.996094h60v-44.996094c0-8.285156 6.714844-15 15-15 8.28125 0 15 6.714844 15 15v44.996094h74.996094v-44.996094c0-8.285156 6.71875-15 15-15 8.285156 0 15 6.714844 15 15v44.996094zm0 0" fill="#ffffff" data-original="#000000" style="" class=""/><path xmlns="http://www.w3.org/2000/svg" d="m95.070312 143.328125c4.523438 6.792969 13.785157 8.8125 20.800782 4.160156 14.238281-9.492187 22.734375-25.164062 22.734375-41.953125 0-16.769531-8.496094-32.445312-22.734375-41.9375-5.960938-3.96875-9.375-10.546875-9.375-18.058594 0-7.5 3.414062-14.078124 9.375-18.046874 6.898437-4.601563 8.761718-13.902344 4.160156-20.800782-4.582031-6.898437-13.898438-8.773437-20.800781-4.160156-14.238281 9.492188-22.730469 25.574219-22.730469 43.007812 0 17.445313 8.492188 33.527344 22.730469 43.019532 5.964843 3.96875 9.375 10.167968 9.375 16.976562 0 6.828125-3.410157 13.023438-9.375 16.992188-6.898438 4.601562-8.757813 13.902344-4.160157 20.800781zm0 0" fill="#ffffff" data-original="#000000" style="" class=""/><path xmlns="http://www.w3.org/2000/svg" d="m24.234375 88.558594c5.960937 3.96875 9.375 10.167968 9.375 16.976562 0 6.828125-3.414063 13.023438-9.375 16.992188-6.898437 4.601562-8.761719 13.902344-4.160156 20.800781 4.519531 6.792969 13.78125 8.8125 20.800781 4.160156 14.238281-9.492187 22.734375-25.164062 22.734375-41.953125 0-16.769531-8.496094-32.445312-22.734375-41.9375-5.960938-3.96875-9.375-10.546875-9.375-18.058594 0-7.5 3.414062-14.078124 9.375-18.046874 6.898438-4.601563 8.757812-13.902344 4.160156-20.800782-4.585937-6.898437-13.886718-8.773437-20.800781-4.160156-14.238281 9.492188-22.734375 25.574219-22.734375 43.007812 0 17.445313 8.496094 33.527344 22.734375 43.019532zm0 0" fill="#ffffff" data-original="#000000" style="" class=""/><path xmlns="http://www.w3.org/2000/svg" d="m439.292969 45.539062c0-17.445312-9.496094-33.515624-23.734375-43.007812-6.914063-4.613281-16.214844-2.738281-20.800782 4.160156-4.601562 6.898438-2.726562 16.214844 4.160157 20.800782 5.960937 3.96875 9.375 10.546874 9.375 18.046874 0 7.511719-3.414063 14.089844-9.375 18.058594-14.238281 9.492188-22.734375 25.167969-22.734375 41.9375 0 16.789063 8.496094 32.460938 22.734375 41.953125 7.015625 4.648438 16.277343 2.632813 20.800781-4.160156 4.597656-6.898437 2.738281-16.199219-4.160156-20.800781-5.960938-3.96875-9.375-10.164063-9.375-16.992188 0-6.808594 3.414062-13.007812 9.375-16.976562 14.238281-9.492188 23.734375-25.558594 23.734375-43.019532zm0 0" fill="#ffffff" data-original="#000000" style="" class=""/><path xmlns="http://www.w3.org/2000/svg" d="m489.753906 2.53125c-6.941406-4.613281-16.230468-2.738281-20.800781 4.160156-4.597656 6.898438-2.738281 16.199219 4.160156 20.800782 5.960938 3.96875 9.375 10.546874 9.375 18.046874 0 7.511719-3.414062 14.089844-9.375 18.058594-14.238281 9.492188-22.734375 25.167969-22.734375 41.9375 0 16.789063 8.496094 32.460938 22.734375 41.953125 7.015625 4.648438 16.28125 2.632813 20.800781-4.160156 4.601563-6.898437 2.738282-16.199219-4.160156-20.800781-5.960937-3.96875-9.375-10.164063-9.375-16.992188 0-6.808594 3.414063-13.007812 9.375-16.976562 14.238282-9.492188 22.734375-25.574219 22.734375-43.019532 0-17.433593-8.496093-33.515624-22.734375-43.007812zm0 0" fill="#ffffff" data-original="#000000" style="" class=""/></g></svg>
