<?xml version="1.0"?>
<svg xmlns="http://www.w3.org/2000/svg" xmlns:xlink="http://www.w3.org/1999/xlink" xmlns:svgjs="http://svgjs.com/svgjs" version="1.1" width="512" height="512" x="0" y="0" viewBox="0 0 511.785 511.785" style="enable-background:new 0 0 512 512" xml:space="preserve" class=""><g transform="matrix(0.8600000000000001,0,0,0.8599999999999999,35.824878692626896,35.8249298286438)">
<g xmlns="http://www.w3.org/2000/svg" transform="translate(1 1)">
	<g>
		<g>
			<path d="M104.042,37.685c8.331-8.331,8.331-21.839,0-30.17c-8.331-8.331-21.839-8.331-30.17,0     c-99.83,99.83-99.83,262.201,0,362.031c8.331,8.331,21.839,8.331,30.17,0c8.331-8.331,8.331-21.839,0-30.17     C20.875,256.209,20.875,120.852,104.042,37.685z" fill="#ffffff" data-original="#000000" style="" class=""/>
			<path d="M435.912,7.507c-8.331-8.331-21.839-8.331-30.17,0c-8.331,8.331-8.331,21.839,0,30.17     c83.167,83.167,83.167,218.524,0,301.691c-8.331,8.331-8.331,21.839,0,30.17c8.331,8.331,21.839,8.331,30.17,0     C535.742,269.708,535.742,107.336,435.912,7.507z" fill="#ffffff" data-original="#000000" style="" class=""/>
			<path d="M164.381,98.007c8.331-8.331,8.331-21.839,0-30.17s-21.839-8.331-30.17,0c-66.55,66.55-66.55,174.82,0,241.37     c8.331,8.331,21.839,8.331,30.17,0s8.331-21.839,0-30.17C114.494,229.15,114.494,147.895,164.381,98.007z" fill="#ffffff" data-original="#000000" style="" class=""/>
			<path d="M375.571,67.846c-8.331-8.331-21.839-8.331-30.17,0c-8.331,8.331-8.331,21.839,0,30.17     c49.888,49.888,49.888,131.143,0,181.03c-8.331,8.331-8.331,21.839,0,30.17c8.331,8.331,21.839,8.331,30.17,0     C442.121,242.666,442.121,134.396,375.571,67.846z" fill="#ffffff" data-original="#000000" style="" class=""/>
			<path d="M340.226,188.526c0-47.131-38.202-85.333-85.333-85.333s-85.333,38.202-85.333,85.333     c0,39.763,27.191,73.17,63.995,82.644l-0.059,216.017c-0.003,11.782,9.545,21.336,21.328,21.339     c11.782,0.003,21.336-9.545,21.339-21.328l0.059-216.026C313.03,261.703,340.226,228.293,340.226,188.526z M254.892,231.193     c-23.567,0-42.667-19.099-42.667-42.667s19.099-42.667,42.667-42.667s42.667,19.099,42.667,42.667     S278.46,231.193,254.892,231.193z" fill="#ffffff" data-original="#000000" style="" class=""/>
		</g>
	</g>
</g>
<g xmlns="http://www.w3.org/2000/svg">
</g>
<g xmlns="http://www.w3.org/2000/svg">
</g>
<g xmlns="http://www.w3.org/2000/svg">
</g>
<g xmlns="http://www.w3.org/2000/svg">
</g>
<g xmlns="http://www.w3.org/2000/svg">
</g>
<g xmlns="http://www.w3.org/2000/svg">
</g>
<g xmlns="http://www.w3.org/2000/svg">
</g>
<g xmlns="http://www.w3.org/2000/svg">
</g>
<g xmlns="http://www.w3.org/2000/svg">
</g>
<g xmlns="http://www.w3.org/2000/svg">
</g>
<g xmlns="http://www.w3.org/2000/svg">
</g>
<g xmlns="http://www.w3.org/2000/svg">
</g>
<g xmlns="http://www.w3.org/2000/svg">
</g>
<g xmlns="http://www.w3.org/2000/svg">
</g>
<g xmlns="http://www.w3.org/2000/svg">
</g>
</g></svg>
