<?xml version="1.0" encoding="utf-8"?>
<svg xml:space="preserve" viewBox="0 0 100 100" y="0" x="0" xmlns="http://www.w3.org/2000/svg" id="Layer_1" version="1.1" style="height: 100%; width: 100%; background: none; shape-rendering: auto;" width="47px" height="47px"><g class="ldl-scale" style="transform-origin: 50% 50%; transform: rotate(0deg) scale(1, 1);"><g class="ldl-ani"><g class="ldl-layer"><g class="ldl-ani"><g><g class="ldl-layer"><g class="ldl-ani" style="transform: scale(0.91); transform-origin: 50px 50px; animation: 1.11111s linear -0.666667s infinite normal forwards running breath-abdb735e-27cb-4772-9be9-9e15c2d7f11f;"><path d="M67.5 59.1h19.6v4H67.5z" fill="#a8b980" style="fill: rgb(168, 185, 128);"></path></g></g><g class="ldl-layer"><g class="ldl-ani" style="transform: scale(0.91); transform-origin: 50px 50px; animation: 1.11111s linear -0.777778s infinite normal forwards running breath-abdb735e-27cb-4772-9be9-9e15c2d7f11f;"><path d="M67.5 39.3h25v4h-25z" fill="#a8b980" style="fill: rgb(168, 185, 128);"></path></g></g><g class="ldl-layer"><g class="ldl-ani" style="transform: scale(0.91); transform-origin: 50px 50px; animation: 1.11111s linear -0.888889s infinite normal forwards running breath-abdb735e-27cb-4772-9be9-9e15c2d7f11f;"><path d="M67.5 49.2h22.6v4H67.5z" fill="#a8b980" style="fill: rgb(168, 185, 128);"></path></g></g></g></g></g><g class="ldl-layer"><g class="ldl-ani" style="transform: scale(0.91); transform-origin: 50px 50px; animation: 1.11111s linear -1s infinite normal forwards running breath-abdb735e-27cb-4772-9be9-9e15c2d7f11f;"><path fill="#f4e6c8" d="M32 57.7L7.5 42.5v22.9c0 3 2.4 5.4 5.4 5.4h43.7c3 0 5.4-2.4 5.4-5.4V42.5L37.5 57.7c-1.7 1.1-3.8 1.1-5.5 0z" style="fill: rgb(244, 230, 200);"></path></g></g><g class="ldl-layer"><g class="ldl-ani" style="transform: scale(0.91); transform-origin: 50px 50px; animation: 1.11111s linear -1.11111s infinite normal forwards running breath-abdb735e-27cb-4772-9be9-9e15c2d7f11f;"><path fill="#f7b26a" d="M11.1 39.8l21.1 13.1c.8.5 1.7.7 2.6.7.9 0 1.8-.2 2.6-.7l21.1-13.1c2.3-1.4 3.6-3.8 3.6-6.5 0-2.2-1.8-4-4-4H11.5c-2.2 0-4 1.8-4 4 0 2.6 1.4 5.1 3.6 6.5z" style="fill: rgb(247, 178, 106);"></path></g></g><metadata xmlns:d="https://loading.io/stock/"><d:name>send mail</d:name><d:tags>email,envelope,packet,message,notification,information,letter,send mail,web application</d:tags><d:license>by</d:license><d:slug>z1mv4x</d:slug></metadata></g></g><style id="breath-abdb735e-27cb-4772-9be9-9e15c2d7f11f" data-anikit="">@keyframes breath-abdb735e-27cb-4772-9be9-9e15c2d7f11f
{
  0% {
    animation-timing-function: cubic-bezier(0.9647,0.2413,-0.0705,0.7911);
    transform: scale(0.9099999999999999);
  }
  51% {
    animation-timing-function: cubic-bezier(0.9226,0.2631,-0.0308,0.7628);
    transform: scale(1.02994);
  }
  100% {
    transform: scale(0.9099999999999999);
  }
}</style><!-- [ldio] generated by https://loading.io/ --></svg>