<?xml version="1.0" encoding="UTF-8" standalone="no"?>
<!DOCTYPE svg PUBLIC "-//W3C//DTD SVG 1.1//EN" "http://www.w3.org/Graphics/SVG/1.1/DTD/svg11.dtd">
<!-- Created with Vectornator (http://vectornator.io/) -->
<svg height="100%" stroke-miterlimit="10" style="fill-rule:nonzero;clip-rule:evenodd;stroke-linecap:round;stroke-linejoin:round;" version="1.1" viewBox="0 0 167.551 52.6316" width="100%" xml:space="preserve" xmlns="http://www.w3.org/2000/svg" xmlns:vectornator="http://vectornator.io" xmlns:xlink="http://www.w3.org/1999/xlink">
<defs/>
<g id="Untitled" vectornator:layerName="Untitled">
<path d="M88.3312 13.2784C88.3312 15.1382 86.8235 16.6459 84.9637 16.6459C83.1039 16.6459 81.5962 15.1382 81.5962 13.2784C81.5962 11.4186 83.1039 9.91093 84.9637 9.91093C85.8577 9.90815 86.7158 10.2621 87.348 10.8942C87.9801 11.5263 88.334 12.3845 88.3312 13.2784ZM74.4388 20.0461L74.4388 20.8791C73.1526 19.4874 71.3213 18.7292 69.4277 18.8041C66.7185 18.7749 64.1152 19.8548 62.2221 21.7931C60.3291 23.7314 59.3109 26.3595 59.4041 29.0673C59.3081 31.775 60.3235 34.4042 62.2147 36.3445C64.1058 38.2847 66.708 39.3673 69.4173 39.3408C71.3235 39.4285 73.1666 38.6467 74.4284 37.2153L74.4284 38.0973C74.4256 38.2895 74.5007 38.4747 74.6366 38.6106C74.7725 38.7465 74.9576 38.8216 75.1498 38.8187L79.3502 38.8187L79.3502 19.2905L75.1855 19.2905C74.7917 19.3014 74.475 19.6181 74.4641 20.0119L74.4388 20.0461ZM74.4388 32.5344C73.4631 33.8785 71.8993 34.6699 70.2384 34.6599C66.9215 34.6599 64.3854 32.585 64.3854 29.0673C64.3854 25.5495 66.9215 23.4746 70.2384 23.4746C71.8939 23.4871 73.4482 24.2736 74.4388 25.6001L74.4388 32.5463L74.4388 32.5344ZM82.4708 19.3233L87.4834 19.3233L87.4834 38.8083L82.4708 38.8083L82.4708 19.2905L82.4708 19.3233ZM156.792 18.8027C154.899 18.7277 153.067 19.486 151.781 20.8776L151.781 9.94217L146.769 9.94217L146.769 38.8053L150.967 38.8053C151.361 38.7944 151.678 38.4778 151.689 38.0839L151.689 37.2019C152.959 38.6162 154.79 39.3947 156.69 39.3274C159.396 39.3482 161.994 38.2656 163.886 36.3292C165.777 34.3928 166.798 31.7697 166.713 29.0643C166.8 26.3582 165.78 23.7336 163.889 21.7966C161.997 19.8597 159.397 18.7779 156.69 18.8012L156.792 18.8027ZM155.946 34.6108C154.282 34.6344 152.712 33.8401 151.745 32.4853L151.745 25.5377C152.767 24.2489 154.302 23.4722 155.946 23.4121C159.263 23.4121 161.799 25.4871 161.799 29.0048C161.799 32.5225 159.263 34.5975 155.946 34.5975L155.946 34.6108ZM144.228 27.2541L144.228 38.8604L139.215 38.8604L139.215 27.8342C139.215 24.6169 138.213 23.3244 135.378 23.3244C133.834 23.3782 132.382 24.0716 131.369 25.2387L131.369 38.8098L126.357 38.8098L126.357 19.2905L130.295 19.2905C130.689 19.3014 131.006 19.6181 131.017 20.0119L131.017 20.8449C132.415 19.4529 134.327 18.7018 136.299 18.7699C138.281 18.6966 140.22 19.3607 141.741 20.6337C143.505 22.0869 144.176 23.9506 144.176 27.2184L144.228 27.2541ZM114.331 18.8056C112.438 18.7306 110.606 19.4889 109.32 20.8806L109.32 9.94514L104.307 9.94514L104.307 38.8053L108.508 38.8053C108.902 38.7944 109.218 38.4778 109.229 38.0839L109.229 37.2019C110.501 38.6191 112.337 39.3978 114.24 39.3274C116.947 39.3482 119.545 38.2656 121.437 36.3292C123.328 34.3928 124.349 31.7697 124.264 29.0643C124.369 26.3533 123.355 23.7184 121.459 21.7775C119.563 19.8366 116.953 18.7604 114.24 18.8012L114.331 18.8056ZM113.495 34.6108C111.831 34.6344 110.261 33.8401 109.295 32.4853L109.295 25.5377C110.317 24.2489 111.852 23.4722 113.495 23.4121C116.812 23.4121 119.348 25.4871 119.348 29.0048C119.348 32.5225 116.812 34.5975 113.495 34.5975L113.495 34.6108ZM99.9895 18.7997C100.76 18.7753 101.529 18.8629 102.274 19.06L102.274 23.671C102.274 23.671 98.1094 22.2981 95.5392 25.2238L95.5392 38.8559L90.5266 38.8559L90.5266 19.2905L94.7271 19.2905C95.1209 19.3014 95.4376 19.6181 95.4485 20.0119L95.4485 20.8449C96.6369 19.6101 98.2474 18.8692 99.9583 18.7699L99.9895 18.7997ZM48.3169 37.0428L47.5346 35.179L46.3417 32.5314L46.2911 32.4809C42.6661 24.5812 38.8492 16.771 34.844 9.05718L34.6833 8.7597L33.4488 6.27572C32.9383 5.25872 32.3129 4.30353 31.5851 3.42882C29.9801 1.4063 27.5315 0.237729 24.9497 0.26213C22.3884 0.270599 19.9609 1.40733 18.3144 3.36933C17.604 4.25686 16.9799 5.21014 16.4507 6.21623L15.048 8.96199C11.0395 16.7411 7.16923 24.6095 3.59201 32.3857L3.54144 32.4854C3.24396 33.3376 2.82005 34.2108 2.39911 35.1419C2.13832 35.7101 1.87753 36.3313 1.61674 37.0056C0.955475 38.791 0.741999 40.7112 0.994999 42.5983C1.56245 46.4537 4.12293 49.7233 7.72999 51.1984C9.05935 51.7573 10.4884 52.0402 11.9304 52.0299C12.3797 52.0224 12.8281 51.9891 13.2736 51.9303C15.1021 51.6971 16.8647 51.0971 18.4557 50.1662C20.8723 48.7249 23.0414 46.9044 24.8798 44.7743C26.7298 46.8927 28.8969 48.7115 31.3039 50.1662C32.8948 51.0973 34.6575 51.6973 36.4861 51.9303C36.9315 51.989 37.3799 52.0223 37.8292 52.0299C39.2717 52.045 40.7017 51.7619 42.0296 51.1984C45.6367 49.7233 48.1972 46.4537 48.7646 42.5983C49.1464 40.7441 48.9826 38.8191 48.2931 37.0562L48.3169 37.0428ZM24.9527 39.7394C22.1564 36.2113 20.3418 32.9033 19.72 30.0966C19.4661 29.0638 19.4116 27.992 19.5594 26.9388C19.662 26.1587 19.9468 25.4137 20.3908 24.7642C21.445 23.3016 23.1486 22.4482 24.9512 22.4795C26.7602 22.4099 28.4796 23.268 29.5116 24.7553C29.9557 25.4048 30.2405 26.1498 30.3431 26.9299C30.4916 27.9831 30.4371 29.055 30.1824 30.0876C29.5607 32.8334 27.7476 36.1012 24.9497 39.7305L24.9527 39.7394ZM45.6307 42.1743C45.2341 44.8739 43.438 47.1618 40.9096 48.1879C39.6704 48.7121 38.3171 48.9087 36.9799 48.7591C35.5886 48.587 34.2478 48.1297 33.0413 47.4159C30.8173 46.0732 28.8239 44.3812 27.1377 42.4049C30.5558 38.2044 32.6307 34.3729 33.4116 30.9488C33.7488 29.5043 33.8368 28.0128 33.6719 26.5387C33.4794 25.2711 32.9997 24.0643 32.2693 23.0105C30.6015 20.6304 27.8585 19.2363 24.9527 19.292C22.0636 19.2551 19.3376 20.6276 17.6466 22.9704C16.9162 24.0241 16.4364 25.2309 16.2439 26.4985C16.0249 27.9708 16.1135 29.4724 16.5042 30.9087C17.2866 34.3267 19.4106 38.2148 22.7781 42.4153C21.1038 44.4034 19.1084 46.0972 16.8746 47.4264C15.6681 48.1556 14.3234 48.6266 12.9255 48.8097C11.5899 48.958 10.2381 48.7793 8.98687 48.2891C6.45856 47.263 4.66242 44.9751 4.26583 42.2755C4.10199 40.9208 4.26363 39.5466 4.73734 38.2669C4.89798 37.7463 5.14787 37.2644 5.40667 36.6129C5.76811 35.7799 6.18905 34.8994 6.59958 34.0174L6.65015 33.9177C10.2289 26.1832 14.0574 18.3222 18.0586 10.6442L18.2073 10.2724L19.4508 7.88657C19.8543 7.06416 20.3557 6.29355 20.9441 5.5915C21.9782 4.37646 23.4933 3.67636 25.0888 3.67636C26.6843 3.67636 28.1994 4.37646 29.2335 5.5915C29.7924 6.29183 30.2667 7.0557 30.6465 7.86723L31.89 10.253L32.0387 10.5505C35.9774 18.2791 39.8268 26.146 43.3951 33.8731L43.3951 33.9237C43.8056 34.7566 44.1775 35.6877 44.588 36.5192C44.8483 37.1409 45.1086 37.6615 45.2573 38.1732C45.6876 39.4631 45.8114 40.8356 45.6188 42.1818L45.6307 42.1743Z" fill="#ffffff" fill-rule="evenodd" opacity="1" stroke="none"/>
</g>
</svg>
