<?xml version="1.0" encoding="UTF-8" standalone="no"?>
<!DOCTYPE svg PUBLIC "-//W3C//DTD SVG 1.1//EN" "http://www.w3.org/Graphics/SVG/1.1/DTD/svg11.dtd">
<!-- Created with Vectornator (http://vectornator.io/) -->
<svg height="100%" stroke-miterlimit="10" style="fill-rule:nonzero;clip-rule:evenodd;stroke-linecap:round;stroke-linejoin:round;" version="1.1" viewBox="0 0 147.233 29.4343" width="100%" xml:space="preserve" xmlns="http://www.w3.org/2000/svg" xmlns:vectornator="http://vectornator.io" xmlns:xlink="http://www.w3.org/1999/xlink">
<defs/>
<g id="Untitled" vectornator:layerName="Untitled">
<g opacity="1">
<clipPath id="ClipPath">
<path d="M0.259741 2.52101L146.575 2.52101L146.575 27.3471L0.259741 27.3471L0.259741 2.52101Z"/>
</clipPath>
<g clip-path="url(#ClipPath)">
<clipPath id="ClipPath_2">
<path d="M0.259985 27.3471L146.575 27.3471L146.575 2.52101L0.259985 2.52101L0.259985 27.3471Z"/>
</clipPath>
<g clip-path="url(#ClipPath_2)">
<path d="M57.6382 5.2386C57.6382 4.00631 58.6329 3.00966 59.8573 3.00966C61.0858 3.00966 62.0843 4.00631 62.0843 5.2386C62.0843 6.46952 61.0858 7.46725 59.8573 7.46725C58.6329 7.46725 57.6382 6.46935 57.6382 5.2386" fill="#ffffff" fill-rule="nonzero" opacity="1" stroke="none"/>
<path d="M92.7176 20.0651C92.7176 18.8323 93.7117 17.8345 94.9362 17.8345C96.1644 17.8345 97.1628 18.8323 97.1628 20.0651C97.1628 21.2947 96.1644 22.2937 94.9362 22.2937C93.7117 22.2937 92.7176 21.2948 92.7176 20.0651" fill="#499fdd" fill-rule="nonzero" opacity="1" stroke="none"/>
<path d="M21.1493 19.1016C19.2345 19.1016 17.9039 17.581 17.9039 15.4079C17.9039 13.2353 19.2345 11.7156 21.1493 11.7156C23.0751 11.7156 24.4204 13.2353 24.4204 15.4079C24.4204 17.6153 23.1031 19.1017 21.1493 19.1017L21.1493 19.1016ZM21.1493 8.46931C17.0983 8.46931 14.1583 11.3882 14.1583 15.4079C14.1583 19.4276 17.0983 22.3458 21.1493 22.3458C25.2155 22.3458 28.1677 19.4276 28.1677 15.4079C28.1677 11.3882 25.2155 8.46931 21.1493 8.46931M53.3323 15.7549C53.1749 15.4586 52.9943 15.2078 52.802 15.0086L52.6796 14.8785L52.8084 14.755C52.9943 14.559 53.1844 14.3265 53.3677 14.0572L56.9428 8.74289L52.6029 8.74289L49.9169 12.8999C49.7649 13.1228 49.4578 13.2353 48.9983 13.2353L48.3861 13.2353L48.3861 5.3761C48.3861 3.8041 47.4067 3.59012 46.3488 3.59012L44.5377 3.59012L44.5408 22.1415L48.3861 22.1415L48.3861 16.5769L48.7463 16.5769C49.1847 16.5769 49.4833 16.6275 49.6201 16.8658L51.7414 20.8698C52.334 21.9562 52.9246 22.1415 54.0354 22.1415L56.9824 22.1415L54.7876 18.5111L53.3323 15.7549M72.0005 8.43957C70.0445 8.43957 68.7964 9.30849 68.097 10.0433L67.8635 10.2794L67.7811 9.95827C67.5757 9.17116 66.8831 8.73809 65.8409 8.73809L64.1176 8.73809L64.1284 22.1369L67.9477 22.1369L67.9477 15.9614C67.9477 15.3575 68.0262 14.8335 68.1857 14.3557C68.6109 12.9089 69.7968 12.0093 71.279 12.0093C72.4712 12.0093 72.937 12.6384 72.937 14.2643L72.937 20.1C72.937 21.4876 73.5788 22.1369 74.9676 22.1369L76.785 22.1369L76.7788 13.615C76.7788 10.2292 75.1276 8.43957 72.0016 8.43957M59.9082 8.74397L58.0979 8.74397L58.1103 19.1037L58.1091 19.1037L58.1091 22.14L60.0414 22.14C60.0656 22.14 60.0852 22.1425 60.1095 22.1425L61.0095 22.14L61.9054 22.14L61.9054 22.1346L61.9115 22.1346L61.9192 10.778C61.9192 9.40767 61.2641 8.74397 59.9094 8.74397M36.1511 19.1016C34.2364 19.1016 32.9032 17.5809 32.9032 15.4079C32.9032 13.2353 34.2364 11.7156 36.1511 11.7156C38.0728 11.7156 39.4218 13.2353 39.4218 15.4079C39.4218 17.6153 38.105 19.1017 36.1511 19.1017L36.1511 19.1016ZM36.1511 8.4693C32.0961 8.4693 29.1555 11.3882 29.1555 15.4079C29.1555 19.4276 32.0961 22.3458 36.1511 22.3458C40.213 22.3458 43.1699 19.4276 43.1699 15.4079C43.1699 11.3882 40.213 8.4693 36.1511 8.4693" fill="#ffffff" fill-rule="nonzero" opacity="1" stroke="none"/>
</g>
</g>
</g>
<g opacity="1">
<clipPath id="ClipPath_3">
<path d="M0.259741 2.52101L146.575 2.52101L146.575 27.3471L0.259741 27.3471L0.259741 2.52101Z"/>
</clipPath>
<g clip-path="url(#ClipPath_3)">
<clipPath id="ClipPath_4">
<path d="M0.259985 3.00966L146.545 3.00966L146.545 27.3153L0.259985 27.3153L0.259985 3.00966Z"/>
</clipPath>
<g clip-path="url(#ClipPath_4)">
<clipPath id="ClipPath_5">
<path d="M0.259985 27.3471L146.575 27.3471L146.575 2.52101L0.259985 2.52101L0.259985 27.3471Z"/>
</clipPath>
<g clip-path="url(#ClipPath_5)">
<path d="M118.017 19.1016C116.103 19.1016 114.77 17.581 114.77 15.4079C114.77 13.2353 116.103 11.7156 118.017 11.7156C119.94 11.7156 121.288 13.2353 121.288 15.4079C121.288 17.6153 119.972 19.1017 118.017 19.1017L118.017 19.1016ZM118.017 8.46931C113.963 8.46931 111.022 11.3882 111.022 15.4079C111.022 19.4276 113.963 22.3458 118.017 22.3458C122.08 22.3458 125.036 19.4276 125.036 15.4079C125.036 11.3882 122.08 8.46931 118.017 8.46931" fill="#499fdd" fill-rule="nonzero" opacity="1" stroke="none"/>
<path d="M84.8319 18.5121C82.7437 18.5121 82.0005 16.6904 82.0005 14.9832C82.0005 14.2311 82.1907 11.7795 84.6312 11.7795C85.844 11.7795 87.4603 12.1273 87.4603 15.1094C87.4603 17.9222 86.0299 18.5121 84.8319 18.5121ZM89.4433 8.7079C88.7184 8.7079 88.1608 8.99698 87.8813 9.52461L87.7756 9.72948L87.5986 9.57588C86.9822 9.04234 85.8768 8.40954 84.0819 8.40954C80.5105 8.40954 78.1061 11.0919 78.1061 15.0836C78.1061 19.0705 80.5939 21.8569 84.1537 21.8569C85.3696 21.8569 86.3305 21.5732 87.092 20.9964L87.3868 20.775L87.3868 21.1475C87.3868 22.9371 86.2295 23.9243 84.1315 23.9243C83.112 23.9243 82.1839 23.6761 81.5633 23.451C80.753 23.2065 80.2781 23.4089 79.9496 24.2216L79.6464 24.9716L79.2176 26.0672L79.4832 26.2088C80.8259 26.9213 82.5739 27.3466 84.1537 27.3466C87.4064 27.3466 91.2042 25.6818 91.2042 20.9964L91.2182 8.7079L89.4439 8.7079" fill="#ffffff" fill-rule="nonzero" opacity="1" stroke="none"/>
</g>
</g>
</g>
</g>
<g opacity="1">
<clipPath id="ClipPath_6">
<path d="M0.259741 2.52101L146.575 2.52101L146.575 27.3471L0.259741 27.3471L0.259741 2.52101Z"/>
</clipPath>
<g clip-path="url(#ClipPath_6)">
<clipPath id="ClipPath_7">
<path d="M0.259985 27.3471L146.575 27.3471L146.575 2.52101L0.259985 2.52101L0.259985 27.3471Z"/>
</clipPath>
<g clip-path="url(#ClipPath_7)">
<path d="M6.9254 18.948L3.81639 18.9449L3.81639 15.2278C3.81639 14.4334 4.12444 14.0203 4.80521 13.9252L6.9254 13.9252C8.43877 13.9252 9.41661 14.8798 9.41758 16.4238C9.41661 18.0083 8.46302 18.947 6.9254 18.948ZM3.81639 8.9208L3.81639 7.94258C3.81639 7.08636 4.1787 6.67916 4.97378 6.62683L6.5647 6.62683C7.92907 6.62683 8.74618 7.4434 8.74618 8.80932C8.74618 9.85099 8.18684 11.0664 6.61487 11.0664L3.81639 11.0664L3.81639 8.9208ZM10.8962 12.6305L10.3341 12.3147L10.8247 11.8951C11.3953 11.4045 12.3518 10.3016 12.3518 8.39593C12.3518 5.47998 10.0901 3.59802 6.58948 3.59802L2.59471 3.59802L2.59471 3.59693L2.13976 3.59693C1.1019 3.63502 0.271634 4.47901 0.259985 5.52333L0.259985 22.074L2.09331 22.074C2.09802 22.0749 2.09951 22.074 2.10112 22.0749L6.66838 22.074C10.5598 22.074 13.0714 19.9559 13.0714 16.6751C13.0714 14.9087 12.2596 13.3985 10.8953 12.6305" fill="#ffffff" fill-rule="nonzero" opacity="1" stroke="none"/>
<path d="M142.097 8.48294C140.513 8.48294 138.979 9.22504 137.997 10.4695L137.72 10.8202L137.504 10.4279C136.797 9.13802 135.579 8.48294 133.885 8.48294C132.11 8.48294 130.919 9.47345 130.366 10.0622L130.005 10.4542L129.864 9.93869C129.663 9.19655 129.002 8.78779 128.002 8.78779L126.397 8.78779L126.38 22.1346L130.028 22.1346L130.028 16.2429C130.028 15.7269 130.092 15.216 130.222 14.6822C130.57 13.2585 131.527 11.7273 133.135 11.8803C134.127 11.9755 134.611 12.742 134.611 14.2225L134.611 22.1346L138.285 22.1346L138.285 16.2429C138.285 15.5981 138.344 15.1152 138.49 14.6308C138.786 13.2717 139.785 11.8784 141.337 11.8784C142.46 11.8784 142.876 12.5142 142.876 14.2225L142.876 20.1835C142.876 21.532 143.477 22.1346 144.824 22.1346L146.541 22.1346L146.545 13.614C146.545 10.2102 145.046 8.48294 142.096 8.48294M108.911 17.5007C108.899 17.5138 107.33 19.1687 105.264 19.1687C103.381 19.1687 101.479 18.0136 101.479 15.4348C101.479 13.2083 102.954 11.6523 105.064 11.6523C105.751 11.6523 106.53 11.8979 106.652 12.311L106.669 12.3807C106.951 13.3172 107.802 13.3674 107.969 13.3674L109.969 13.3695L109.969 11.6227C109.969 9.3187 107.038 8.48308 105.064 8.48308C100.848 8.48308 97.7872 11.4192 97.7872 15.4628C97.7872 19.5047 100.815 22.4369 104.987 22.4369C108.608 22.4369 110.577 20.0567 110.596 20.0331L110.702 19.904L109.118 17.2789L108.911 17.5007" fill="#499fdd" fill-rule="nonzero" opacity="1" stroke="none"/>
</g>
</g>
</g>
</g>
</svg>
