<?xml version="1.0" encoding="UTF-8" standalone="no"?>
<!DOCTYPE svg PUBLIC "-//W3C//DTD SVG 1.1//EN" "http://www.w3.org/Graphics/SVG/1.1/DTD/svg11.dtd">
<!-- Created with Vectornator (http://vectornator.io/) -->
<svg height="100%" stroke-miterlimit="10" style="fill-rule:nonzero;clip-rule:evenodd;stroke-linecap:round;stroke-linejoin:round;" version="1.1" viewBox="0 0 3438.84 713.496" width="100%" xml:space="preserve" xmlns="http://www.w3.org/2000/svg" xmlns:vectornator="http://vectornator.io" xmlns:xlink="http://www.w3.org/1999/xlink">
<defs/>
<clipPath id="ArtboardFrame">
<rect height="713.496" width="3438.84" x="0" y="0"/>
</clipPath>
<g clip-path="url(#ArtboardFrame)" id="Untitled" vectornator:layerName="Untitled">
<path d="M3409.84 486.75C3399.43 486.75 3390.98 495.2 3390.98 505.604C3390.98 516.008 3399.43 524.458 3409.84 524.458C3420.24 524.458 3428.69 516.008 3428.69 505.604C3428.69 495.2 3420.24 486.75 3409.84 486.75ZM3409.84 521.468C3401.07 521.468 3393.97 514.332 3393.97 505.604C3393.97 496.834 3401.11 489.74 3409.84 489.74C3418.61 489.74 3425.74 496.875 3425.74 505.604C3425.74 514.333 3418.61 521.468 3409.84 521.468ZM3415.98 502.375C3415.98 498.947 3413.54 496.914 3409.96 496.914L3403.94 496.914L3403.94 514.094L3406.88 514.094L3406.88 507.876L3410.11 507.876L3413.22 514.094L3416.41 514.094L3412.98 507.239C3414.82 506.401 3415.98 504.726 3415.98 502.375ZM3409.84 505.205L3406.93 505.205L3406.93 499.506L3409.84 499.506C3411.83 499.506 3413.03 500.502 3413.03 502.336C3413.03 504.209 3411.79 505.205 3409.84 505.205ZM1138.09 295.939L1138.09 250.339L1068.17 250.339L1068.17 521.627L1138.09 521.627L1138.09 358.959C1138.09 329.502 1156.98 315.032 1186.44 315.032L1224.71 315.032L1224.71 250.34L1192.02 250.34C1166.43 250.339 1144.19 263.692 1138.09 295.939ZM1290.19 143.036C1266.28 143.036 1247.94 161.93 1247.94 185.846C1247.94 209.204 1266.28 228.098 1290.19 228.098C1314.11 228.098 1332.45 209.204 1332.45 185.846C1332.45 161.929 1314.11 143.036 1290.19 143.036ZM1255.32 521.628L1325.07 521.628L1325.07 250.339L1255.32 250.339L1255.32 521.628ZM1657.35 385.983C1657.35 463.431 1594.57 526.212 1517.12 526.212C1485.87 526.212 1457.53 515.968 1434.81 498.668L1434.81 601.269L1365.05 601.269L1365.05 250.339L1434.81 250.339L1434.81 273.298C1457.53 255.999 1485.87 245.755 1517.12 245.755C1594.57 245.755 1657.35 308.535 1657.35 385.983ZM1587.15 385.983C1587.15 343.931 1553.03 309.81 1510.98 309.81C1468.93 309.81 1434.81 343.931 1434.81 385.983C1434.81 428.036 1468.93 462.156 1510.98 462.156C1553.03 462.156 1587.15 428.076 1587.15 385.983ZM2869.73 362.187L2829.04 351.026C2802.25 344.05 2791.85 335.839 2791.85 321.689C2791.85 307.897 2806.51 298.251 2827.48 298.251C2847.45 298.251 2863.12 311.325 2863.12 328.066L2863.12 329.62L2927.41 329.62L2927.41 328.066C2927.41 278.838 2887.27 245.754 2827.48 245.754C2768.29 245.754 2725.28 278.798 2725.28 324.358C2725.28 359.794 2748.76 386.5 2789.73 397.581L2828.72 408.224C2858.33 416.435 2869.33 425.524 2869.33 441.827C2869.33 459.007 2853.43 470.566 2829.75 470.566C2805.08 470.566 2788.46 454.94 2788.46 431.742L2788.46 430.187L2720.22 430.187L2720.22 431.742C2720.22 487.387 2765.02 526.29 2829.2 526.29C2891.02 526.29 2935.9 488.304 2935.9 436.007C2935.9 410.337 2924.42 376.776 2869.73 362.187ZM1904.8 250.339L1974.55 250.339L1974.55 521.627L1904.8 521.627L1904.8 498.667C1882.08 515.967 1853.74 526.211 1822.49 526.211C1745.04 526.211 1682.26 463.431 1682.26 385.982C1682.26 308.533 1745.04 245.754 1822.49 245.754C1853.74 245.754 1882.08 255.998 1904.8 273.297L1904.8 250.339ZM1904.8 385.983L1904.8 385.983C1904.8 343.891 1870.68 309.81 1828.62 309.81C1786.57 309.81 1752.45 343.931 1752.45 385.983C1752.45 428.036 1786.57 462.156 1828.62 462.156C1870.72 462.156 1904.8 428.076 1904.8 385.983ZM2226.43 153.798L2296.19 153.798L2296.19 521.667L2226.43 521.667L2226.43 498.707C2203.71 516.007 2175.37 526.251 2144.12 526.251C2066.67 526.251 2003.89 463.471 2003.89 386.022C2003.89 308.573 2066.67 245.794 2144.12 245.794C2175.37 245.794 2203.71 256.038 2226.43 273.337L2226.43 153.798ZM2226.43 385.983C2226.43 343.931 2192.31 309.81 2150.26 309.81C2108.21 309.81 2074.08 343.931 2074.08 385.983C2074.08 428.036 2108.16 462.156 2150.26 462.156C2192.31 462.156 2226.43 428.076 2226.43 385.983ZM2620.05 521.628L2689.8 521.628L2689.8 250.339L2620.05 250.339L2620.05 521.628ZM2654.93 143.036C2631.01 143.036 2612.67 161.93 2612.67 185.846C2612.67 209.204 2631.01 228.098 2654.93 228.098C2678.84 228.098 2697.18 209.204 2697.18 185.846C2697.18 161.929 2678.84 143.036 2654.93 143.036ZM3237.4 385.983C3237.4 463.431 3174.62 526.212 3097.17 526.212C3019.73 526.212 2956.95 463.432 2956.95 385.983C2956.95 308.534 3019.73 245.755 3097.17 245.755C3174.62 245.755 3237.4 308.535 3237.4 385.983ZM3173.35 385.983C3173.35 343.931 3139.23 309.81 3097.17 309.81C3055.12 309.81 3021 343.931 3021 385.983C3021 428.036 3055.08 462.156 3097.17 462.156C3139.23 462.156 3173.35 428.076 3173.35 385.983ZM1102.37 153.798L834.79 153.798L834.79 216.02L933.843 216.02L933.843 521.627L1003.36 521.627L1003.36 216.02L1102.41 216.02L1102.41 153.798L1102.37 153.798ZM2455.59 447.328L2393.52 250.34L2320.26 250.34L2413.33 521.628L2497.28 521.628L2590.91 250.34L2517.65 250.34L2455.59 447.328ZM3339.6 295.939L3339.6 250.339L3269.69 250.339L3269.69 521.627L3339.6 521.627L3339.6 358.959C3339.6 329.502 3358.5 315.032 3387.95 315.032L3426.22 315.032L3426.22 250.34L3393.53 250.34C3367.94 250.339 3345.74 263.692 3339.6 295.939Z" fill="#579744" fill-rule="nonzero" opacity="1" stroke="none"/>
<path d="M1.37937 356.051C1.37937 159.025 161.101-0.697238 358.127-0.697238C555.153-0.697238 714.875 159.025 714.875 356.051C714.875 553.077 555.153 712.799 358.127 712.799C161.101 712.799 1.37937 553.077 1.37937 356.051Z" fill="#34e0a1" fill-rule="nonzero" opacity="1" stroke="none"/>
<path d="M578.473 286.455L621.522 239.619L526.057 239.619C478.265 206.973 420.547 187.96 358.126 187.96C295.784 187.96 238.227 207.014 190.514 239.619L94.8104 239.619L137.859 286.455C111.472 310.53 94.9304 345.209 94.9304 383.714C94.9304 456.379 153.844 515.292 226.509 515.292C261.028 515.292 292.477 501.979 315.955 480.215L358.127 526.134L400.299 480.255C423.777 502.019 455.186 515.292 489.705 515.292C562.37 515.292 621.363 456.379 621.363 383.714C621.402 345.169 604.861 310.491 578.473 286.455ZM226.548 472.761C177.36 472.761 137.501 432.902 137.501 383.714C137.501 334.526 177.361 294.666 226.548 294.666C275.735 294.666 315.595 334.526 315.595 383.714C315.595 432.902 275.735 472.761 226.548 472.761ZM358.166 381.123C358.166 322.528 315.556 272.225 259.313 250.74C289.726 238.024 323.089 230.969 358.126 230.969C393.163 230.969 426.565 238.024 456.979 250.74C400.777 272.265 358.166 322.529 358.166 381.123ZM489.745 472.761C440.557 472.761 400.697 432.902 400.697 383.714C400.697 334.526 440.557 294.666 489.745 294.666C538.933 294.666 578.792 334.526 578.792 383.714C578.792 432.902 538.932 472.761 489.745 472.761ZM489.745 336.997C463.955 336.997 443.068 357.884 443.068 383.674C443.068 409.463 463.955 430.35 489.745 430.35C515.534 430.35 536.421 409.463 536.421 383.674C536.42 357.924 515.534 336.997 489.745 336.997ZM273.224 383.714C273.224 409.503 252.337 430.39 226.548 430.39C200.759 430.39 179.872 409.503 179.872 383.714C179.872 357.924 200.759 337.037 226.548 337.037C252.337 336.997 273.224 357.924 273.224 383.714Z" fill="#000000" fill-rule="nonzero" opacity="1" stroke="none"/>
</g>
</svg>
