<?xml version="1.0" encoding="UTF-8" standalone="no"?>
<!DOCTYPE svg PUBLIC "-//W3C//DTD SVG 1.1//EN" "http://www.w3.org/Graphics/SVG/1.1/DTD/svg11.dtd">
<!-- Created with Vectornator (http://vectornator.io/) -->
<svg height="100%" stroke-miterlimit="10" style="fill-rule:nonzero;clip-rule:evenodd;stroke-linecap:round;stroke-linejoin:round;" version="1.1" viewBox="0 0 112.875 40" width="100%" xml:space="preserve" xmlns="http://www.w3.org/2000/svg" xmlns:vectornator="http://vectornator.io" xmlns:xlink="http://www.w3.org/1999/xlink">
<defs/>
<g id="Untitled" vectornator:layerName="Untitled">
<g opacity="1">
<path d="M99.1658 13.8127L99.1658 13.8666C106.113 14.4508 108.153 19.3847 108.054 22.2515C107.892 30.5556 101.458 37.242 91.0775 38.0598L91.0775 38.1047C102.482 37.4217 109.159 31.5262 109.303 23.0783C109.285 19.9688 107.021 14.271 99.1658 13.8127Z" fill="#4b7edb" fill-rule="nonzero" opacity="1" stroke="none"/>
<path d="M91.0775 37.9609C99.8561 37.3727 106.736 30.1847 106.94 21.3888C106.94 18.7645 105.142 14.4507 99.1029 13.9654L99.1029 14.0104C104.1 14.5406 105.861 18.1804 105.825 20.562C105.681 28.5694 99.4714 37.0532 91.1314 37.907L91.0775 37.9609Z" fill="#4b7edb" fill-rule="nonzero" opacity="1" stroke="none"/>
<path d="M91.1494 37.8082C98.5278 37.0443 104.468 27.5539 104.63 19.6902C104.63 17.5603 103.273 14.5856 99.058 14.1092L99.058 14.1632C102.374 14.6664 103.552 16.9761 103.552 18.8724C103.417 26.5743 97.6291 36.9095 91.2752 37.7452L91.1494 37.8082Z" fill="#4b7edb" fill-rule="nonzero" opacity="1" stroke="none"/>
<path d="M91.2482 37.6015L91.2482 37.6644C96.6405 36.8825 102.203 25.5498 102.338 18.0006C102.416 16.0546 100.929 14.4009 98.9861 14.271L98.9861 14.3249C100.353 14.5546 101.307 15.804 101.17 17.1828C100.963 24.5612 95.571 36.8016 91.2482 37.6015ZM87.8601 34.6717C87.9859 27.5719 93.5849 15.0978 97.7459 14.253L97.7459 14.1901C92.5334 14.963 86.7727 26.4934 86.6379 33.8089C86.5664 34.7609 86.8834 35.7013 87.5166 36.4158C88.1498 37.1303 89.0453 37.558 89.999 37.6015L89.999 37.5475C89.3319 37.4544 88.7299 37.0976 88.3279 36.5571C87.9259 36.0166 87.7574 35.3374 87.8601 34.6717Z" fill="#4b7edb" fill-rule="nonzero" opacity="1" stroke="none"/>
<path d="M85.5684 32.9821C85.7032 25.4779 91.7335 14.945 97.8627 14.1092L97.8627 14.0553C90.6731 14.8192 84.5349 24.4534 84.3821 32.1193C84.3821 34.2583 85.7841 37.4217 89.9541 37.7632L89.9541 37.7093C86.7008 37.2869 85.5325 34.8784 85.5684 32.9821Z" fill="#4b7edb" fill-rule="nonzero" opacity="1" stroke="none"/>
<path d="M83.2767 31.2925C83.4115 23.4288 89.8193 14.8012 97.9346 13.9475L97.9346 13.8936C89.2436 14.6241 82.4537 21.7067 82.0904 30.4208C82.0904 33.045 83.8878 37.5026 89.9361 37.898L89.9361 37.8441C84.7236 37.3768 83.2407 33.6471 83.2767 31.2925Z" fill="#4b7edb" fill-rule="nonzero" opacity="1" stroke="none"/>
<path d="M80.985 29.603C81.1288 21.3438 88.2465 14.5856 98.0065 13.8037L98.0065 13.7498C87.0782 14.4238 79.9245 20.3193 79.7807 28.7312C79.7178 31.8407 81.9915 37.5925 89.8373 38.0418C82.9891 37.5026 80.9401 32.4698 80.985 29.603ZM75.431 13.9295C71.6654 13.4172 67.1179 15.6281 64.5566 19.5105L64.6015 19.5734C67.0281 16.0864 71.1262 14.0104 74.4873 14.4777C76.7521 14.7833 78.3068 16.4998 77.9923 19.87C77.1924 28.4526 69.9578 38.0957 58.3825 38.0688L58.3825 38.1317C69.0986 38.5438 78.2933 30.5643 79.3943 19.8969C79.7088 16.1763 77.9833 14.28 75.431 13.9295Z" fill="#4b7edb" fill-rule="nonzero" opacity="1" stroke="none"/>
<path d="M76.6352 19.834C76.9138 16.8773 75.5927 15.3405 73.5167 15.0619C70.524 14.6575 66.8843 16.4818 64.6824 19.6902L64.7274 19.7441C66.7495 16.9761 69.9848 15.2506 72.5821 15.6101C74.3795 15.8527 75.5658 17.2008 75.2782 19.807C74.5862 27.1944 67.5403 37.3498 58.4184 37.916C68.6098 37.907 75.8803 27.8864 76.6352 19.834Z" fill="#4b7edb" fill-rule="nonzero" opacity="1" stroke="none"/>
<path d="M58.5443 37.7363L58.5443 37.7902C67.037 36.7746 73.328 26.4575 74.002 19.7711C74.1997 17.5783 73.1932 16.4099 71.6924 16.1763C69.4276 15.8617 66.6057 17.3895 64.8622 19.834L64.8622 19.8879C66.5248 17.74 68.8435 16.4639 70.6768 16.7155C71.971 16.8952 72.7618 17.8748 72.5911 19.6633C72.0249 25.7565 66.2462 36.1276 58.5443 37.7363Z" fill="#4b7edb" fill-rule="nonzero" opacity="1" stroke="none"/>
<path d="M58.6431 37.5296L58.6431 37.6104C64.9341 35.9209 70.7667 25.0285 71.225 19.6363C71.3508 18.2613 70.7397 17.4524 69.7332 17.3176C68.2323 17.1109 66.3271 18.2163 64.9341 20.0137L64.9341 20.0677C66.0934 18.6837 67.6302 17.7041 68.7536 17.8569C69.4815 17.9557 69.9579 18.5938 69.859 19.6093C69.5085 24.3186 64.1162 35.1929 58.6431 37.5296ZM57.6545 31.4094C56.9859 32.8759 56.5086 34.4224 56.2346 36.0107C56.2537 36.6214 56.596 37.1759 57.1333 37.4667C57.2199 37.5103 57.3101 37.5464 57.4029 37.5745L57.4029 37.4936C57.1438 37.2424 57.0289 36.8774 57.0973 36.523C57.4688 34.911 58.0142 33.344 58.724 31.8497L70.4072 2.19238L68.7626 2.51591C68.8524 2.89337 65.698 10.6492 65.5722 11.0357L57.6545 31.4094Z" fill="#4b7edb" fill-rule="nonzero" opacity="1" stroke="none"/>
<path d="M55.5066 30.4837C54.9127 31.9067 54.4845 33.3934 54.2305 34.9143C54.0867 36.541 55.5066 37.4217 57.4119 37.7093L57.4119 37.6554C56.1088 37.4217 55.1022 36.7567 55.219 35.4985C55.5184 33.9576 55.9761 32.4517 56.5851 31.0049L64.3679 10.9817C64.5566 10.4515 67.5134 3.29779 67.064 2.83945L65.4643 3.16298L65.4643 3.25286C65.5272 4.99635 63.5051 9.76848 63.0917 10.8919L55.5066 30.4837Z" fill="#4b7edb" fill-rule="nonzero" opacity="1" stroke="none"/>
<path d="M60.6652 10.793L53.3318 29.567C52.7456 30.8903 52.3289 32.2823 52.0915 33.7101C51.8938 36.0018 53.7721 37.5835 57.2861 37.8261C56.562 37.7462 55.85 37.5803 55.1651 37.3318C53.8357 37.0091 52.9588 35.7419 53.1251 34.3841C53.3788 32.8908 53.8196 31.4354 54.4372 30.0523L61.9144 10.8379C62.2919 9.82241 64.4308 4.96939 63.9185 3.48652L62.3728 3.79208L62.3728 3.88195C63.2175 5.04128 61.1595 9.53482 60.6652 10.793Z" fill="#4b7edb" fill-rule="nonzero" opacity="1" stroke="none"/>
<path d="M58.005 11.1795L51.2288 28.6503C50.6695 29.8906 50.2883 31.2037 50.0964 32.5507C49.8538 35.4176 52.3432 37.7632 57.2861 37.943C53.143 37.7093 50.8873 35.7501 51.1119 33.1618C51.3198 31.7773 51.7191 30.4283 52.2982 29.1536L59.2992 11.1795C59.9283 9.53482 61.7886 5.49962 60.782 4.15156L59.1913 4.4751L59.1913 4.56497C60.2698 6.04783 58.724 9.38204 58.005 11.1795Z" fill="#4b7edb" fill-rule="nonzero" opacity="1" stroke="none"/>
<path d="M57.2142 38.0508C51.6332 37.8082 48.8202 35.0851 49.1258 31.9216C49.2921 30.6571 49.6371 29.4225 50.1503 28.2549L56.612 11.5569C57.4209 9.47191 58.9307 6.32643 57.7444 4.77167L56.2795 5.07723L56.2795 5.1671C57.5287 6.56908 56.3694 8.86978 55.5156 11.1974L49.0809 27.7336C48.5618 28.8722 48.2252 30.0853 48.0833 31.3285C47.7777 34.7705 50.8423 37.889 57.1962 38.0778L57.2142 38.0508ZM49.8627 17.0031C49.7459 14.7833 48.4338 13.7677 46.8431 13.7677C43.9493 13.7677 41.4508 16.0505 39.8781 19.16L39.8781 18.0636C39.7523 15.646 38.0807 13.7677 35.106 13.7677C28.815 13.7677 25.7145 17.9108 24.681 22.602L24.7349 22.602C25.8313 18.2073 28.7611 14.244 34.414 14.244C35.5081 14.1465 36.5934 14.5085 37.41 15.2432C38.2265 15.9779 38.7006 17.0192 38.7188 18.1175C38.8716 20.9664 37.9279 23.1862 36.9214 25.7475L32.338 37.7273L33.5602 37.7273L38.1436 25.8464C38.4492 25.0285 38.7367 24.2646 38.9974 23.5277C39.8961 21.6404 41.0195 19.7082 41.6036 19.7082C42.035 19.7082 42.1698 20.0767 42.1968 20.4092C42.2019 22.1977 41.7337 23.9557 40.8397 25.5049L40.8936 25.5588C42.2878 23.986 43.1193 21.9942 43.2572 19.8969C43.2572 19.2768 42.9517 18.8364 42.3585 18.8364C41.3789 18.8364 40.1297 20.8495 39.2131 22.9795C39.3209 22.638 39.4108 22.2965 39.5006 21.9639C40.4802 19.834 41.8373 18.0186 43.0955 18.0186C43.8684 18.0186 44.3357 18.5489 44.3806 19.4206C44.4885 21.5416 42.5832 24.6331 40.9835 25.6486L41.0374 25.7026C43.2123 24.732 45.6029 21.5416 45.4681 18.9353C45.4052 17.776 44.794 17.1379 43.8234 17.1379C42.2237 17.1379 40.678 18.9982 39.6085 21.2989C39.6085 21.1192 39.6804 20.9394 39.7074 20.7507C40.9026 18.2792 42.6551 16.3201 44.6053 16.3201C45.6658 16.3201 46.4746 17.039 46.5465 18.441C46.7173 21.5326 43.7965 24.8218 41.1543 25.7835L41.2082 25.8374C44.4525 25.0106 47.8407 21.5326 47.6519 17.9557C47.5621 16.2661 46.6004 15.4483 45.3512 15.4483C43.1045 15.4573 41.1003 17.4704 39.8511 20.1665L39.8511 19.7262C41.2801 16.8323 43.5358 14.6395 46.1421 14.6395C47.5441 14.6395 48.7034 15.5382 48.8382 17.4974C49.0539 21.6045 45.2434 25.0825 41.361 25.9542L41.4149 25.9991C45.9084 25.3161 50.1054 21.5955 49.8627 17.0031Z" fill="#4b7edb" fill-rule="nonzero" opacity="1" stroke="none"/>
<path d="M37.5954 18.2073C37.5782 17.2196 37.1553 16.2824 36.426 15.616C35.6967 14.9495 34.7253 14.6126 33.7399 14.6844C28.7251 14.6844 25.8403 18.414 24.8248 22.602L24.8877 22.602C26.0021 18.7016 28.5544 15.1697 33.0389 15.1697C33.9091 15.0889 34.7731 15.378 35.4194 15.9662C36.0658 16.5543 36.4348 17.3874 36.4361 18.2613C36.5619 20.6249 35.4475 23.2311 34.5578 25.6037L29.8306 37.7273L31.0887 37.7273L35.7171 25.7026C36.7057 23.2311 37.7302 20.7687 37.5954 18.2073Z" fill="#4b7edb" fill-rule="nonzero" opacity="1" stroke="none"/>
<path d="M35.3576 18.3062C35.3609 17.5453 35.0426 16.8185 34.4811 16.305C33.9197 15.7914 33.1674 15.5391 32.4098 15.6101C28.4735 15.6101 26.065 19.0072 25.0225 22.611L25.0764 22.611C26.1818 19.2588 28.4465 16.0954 31.7178 16.0954C32.3509 16.0507 32.9742 16.2695 33.4405 16.7001C33.9067 17.1306 34.1744 17.7345 34.1803 18.3691C34.2792 20.2474 32.985 23.294 32.1312 25.424L27.2692 37.7273L28.5724 37.7273L33.3445 25.5049C34.1893 23.285 35.4475 20.4811 35.3576 18.3062Z" fill="#4b7edb" fill-rule="nonzero" opacity="1" stroke="none"/>
<path d="M33.0659 18.45C33.0704 17.9233 32.8525 17.4192 32.4658 17.0616C32.0791 16.704 31.5595 16.5261 31.0348 16.5717C28.3387 16.5717 26.1908 19.5015 25.1663 22.602L25.2292 22.602C26.2986 19.834 28.132 17.048 30.3338 17.048C30.7431 17.0005 31.1528 17.1342 31.4552 17.4141C31.7575 17.6941 31.9224 18.0922 31.9066 18.5039C31.9875 19.9958 30.4776 23.3839 29.7587 25.2622L24.7618 37.7273L26.011 37.7273L30.918 25.3611C31.7628 23.3839 33.1558 20.1665 33.0659 18.45Z" fill="#4b7edb" fill-rule="nonzero" opacity="1" stroke="none"/>
<path d="M30.8012 18.5938C30.8287 18.2898 30.7206 17.9892 30.5056 17.7725C30.2907 17.5559 29.9909 17.4453 29.6868 17.4704C28.096 17.4704 26.3795 19.9778 25.346 22.5841L25.4089 22.5841C26.4514 20.2654 28.0601 17.9467 29.0037 17.9467C29.3902 17.9467 29.6418 18.1444 29.6688 18.6297C29.7227 19.6453 28.0331 23.4558 27.3501 25.1004L22.2634 37.6823L23.5216 37.6823L28.5634 25.1723C29.2734 23.4288 30.8641 19.807 30.8012 18.5938ZM17.0599 29.2615L17.8688 27.5629L15.1277 13.579C14.3638 9.64266 15.2805 7.92613 18.372 7.33299L18.372 7.27906L15.5141 7.27906C14.6873 7.69247 12.9349 8.93269 13.9144 13.57L17.0599 29.2615Z" fill="#4b7edb" fill-rule="nonzero" opacity="1" stroke="none"/>
<path d="M15.4422 32.6406L16.2421 30.951L12.6473 13.4891C11.9732 10.101 12.2608 8.33954 13.3842 7.33299L13.3842 7.27906L11.443 7.27906C10.8499 8.54624 10.6701 9.81342 11.3531 13.1656L15.4422 32.6406ZM13.7886 36.0107L14.5885 34.3391L10.0949 13.1207C9.30408 9.82241 9.48382 8.31258 9.80735 7.27906L8.09082 7.27906C8.0729 9.06365 8.30276 10.8421 8.77384 12.5635L13.7886 36.0107ZM6.51808 7.27906L4.49599 7.27906L4.49599 7.33299C5.3947 8.42941 5.66431 9.76848 6.38328 12.7252L11.7755 37.7363L12.9888 37.7363L7.59653 12.6443C7.13067 10.879 6.77055 9.08735 6.51808 7.27906ZM2.4739 7.27906L0.308015 7.27906L0.308015 7.33299C2.28517 8.11486 3.25578 9.6157 4.03765 13.1296L9.36699 37.7273L10.5802 37.7273L5.21496 12.9769C4.28929 8.68105 3.31868 7.89019 2.4739 7.27906ZM30.0283 7.27906C27.4759 8.77092 25.9571 11.53 22.7757 18.3691L22.8566 18.4141C26.5323 11.53 28.6263 8.78889 33.3715 7.35995L33.3715 7.27906L30.0283 7.27906ZM22.596 18.2343L22.6768 18.2882C25.6965 11.1795 26.4874 9.19331 27.7186 7.33299L27.7186 7.27906L25.2741 7.27906L25.2741 7.35096C25.5257 10.1999 24.5731 12.8241 22.596 18.2343Z" fill="#4b7edb" fill-rule="nonzero" opacity="1" stroke="none"/>
<path d="M22.4342 18.1265L22.5151 18.1804C24.4293 11.8085 25.0494 8.99559 23.3599 7.27906L20.9783 7.27906L20.9783 7.33299C23.6744 8.28562 24.2316 11.0087 22.4342 18.1265ZM109.95 15.4573L109.95 16.6706L109.771 16.6706L109.771 15.4573L109.249 15.4573L109.249 15.2865L110.49 15.2865L110.49 15.4573L109.95 15.4573ZM112.017 16.6706L112.017 15.4933L111.586 16.6526L111.379 16.6526L110.993 15.4933L110.993 16.6706L110.822 16.6706L110.876 15.2865L111.191 15.2865L111.55 16.4459L111.963 15.2865L112.251 15.2865L112.305 16.6706L112.017 16.6706Z" fill="#4b7edb" fill-rule="nonzero" opacity="1" stroke="none"/>
</g>
</g>
</svg>
