<?xml version="1.0" encoding="UTF-8" standalone="no"?>
<!DOCTYPE svg PUBLIC "-//W3C//DTD SVG 1.1//EN" "http://www.w3.org/Graphics/SVG/1.1/DTD/svg11.dtd">
<!-- Created with Vectornator (http://vectornator.io/) -->
<svg height="100%" stroke-miterlimit="10" style="fill-rule:nonzero;clip-rule:evenodd;stroke-linecap:round;stroke-linejoin:round;" version="1.1" viewBox="0 0 427.482 427.448" width="100%" xml:space="preserve" xmlns="http://www.w3.org/2000/svg" xmlns:vectornator="http://vectornator.io" xmlns:xlink="http://www.w3.org/1999/xlink">
<defs/>
<g id="Layer-2" vectornator:layerName="Layer 2"/>
<g id="Layer-3" vectornator:layerName="Layer 3">
<g opacity="1">
<path d="M95.3092 0.887567L332.349 0.887567C384.395 0.887567 426.587 43.0792 426.587 95.1252L426.587 332.165C426.587 384.211 384.395 426.403 332.349 426.403L95.3092 426.403C43.2632 426.403 1.07157 384.211 1.07157 332.165L1.07157 95.1252C1.07157 43.0792 43.2632 0.887567 95.3092 0.887567Z" fill="#ffffff" fill-rule="nonzero" opacity="1" stroke="#e3e3e3" stroke-linecap="butt" stroke-linejoin="round" stroke-width="1"/>
<g opacity="1">
<clipPath id="ClipPath">
<path d="M80.1879 83.3713L159.717 83.3713L159.717 356.725L80.1879 356.725L80.1879 83.3713Z"/>
</clipPath>
<g clip-path="url(#ClipPath)">
<path d="M80.1923 83.2959L95.4191 83.2959C99.2979 90.2769 101.992 97.8392 104.282 105.468C106.701 113.532 108.542 121.76 110.286 129.997C124.404 195.275 138.521 260.558 152.634 325.841C154.871 336.115 157.058 346.403 159.322 356.672L147.069 356.672C147.06 355.878 146.802 355.119 146.647 354.351C130.422 279.376 114.192 204.404 97.9577 129.433C96.0404 120.446 93.8081 111.495 90.6483 102.859C88.0654 95.9131 84.8301 89.1186 80.1923 83.2959Z" fill="#318eee" fill-rule="evenodd" opacity="1" stroke="none"/>
</g>
</g>
<g opacity="1">
<clipPath id="ClipPath_2">
<path d="M109.727 83.3713L183.575 83.3713L183.575 356.725L109.727 356.725L109.727 83.3713Z"/>
</clipPath>
<g clip-path="url(#ClipPath_2)">
<path d="M110.127 83.2959L124.421 83.2959C126.729 96.3569 129.796 109.263 132.8 122.177C146.642 186.262 160.471 250.347 174.313 314.431C177.362 328.509 180.38 342.595 183.447 356.672L171.375 356.672C168.753 344.725 166.21 332.76 163.609 320.809C149.736 256.551 135.863 192.293 121.976 128.035C120.587 121.303 118.838 114.65 117.245 107.967C115.164 99.6677 113.189 91.302 110.127 83.2959Z" fill="#245abc" fill-rule="evenodd" opacity="1" stroke="none"/>
</g>
</g>
<g opacity="1">
<clipPath id="ClipPath_3">
<path d="M136.994 83.3713L357.177 83.3713L357.177 356.042L136.994 356.042L136.994 83.3713Z"/>
</clipPath>
<g clip-path="url(#ClipPath_3)">
<path d="M138.113 83.2959L152.581 83.2959C152.075 94.3953 153.708 105.455 155.878 116.306C156.615 120.043 157.507 123.748 158.35 127.463C173.226 197.734 188.102 268.01 202.978 338.281C200.356 343.851 197.675 349.394 195.061 354.972C193.668 348.812 192.394 342.63 191.049 336.466C179.404 282.442 167.745 228.423 156.104 174.399C151.72 154.135 147.406 133.854 142.963 113.599C140.838 103.591 138.92 93.5077 138.113 83.2959ZM338.049 83.2959L357.194 83.2959C351.318 87.1481 345.718 91.4352 340.614 96.2726C328.871 107.301 319.387 120.469 310.755 134.004C301.48 148.672 293.114 163.89 284.953 179.192C284.669 179.01 284.389 178.828 284.109 178.646C285.028 176.596 286.027 174.586 286.968 172.544C294.388 156.896 301.848 141.265 309.952 125.954C314.283 117.81 318.797 109.751 323.807 102.002C328.072 95.4205 332.723 89.0653 338.049 83.2959Z" fill="#1c4695" fill-rule="evenodd" opacity="1" stroke="none"/>
</g>
</g>
<path d="M166.596 83.2959L181.574 83.2959C180.149 88.1954 179.617 93.3036 179.524 98.3895C179.417 108.615 180.913 118.778 182.83 128.799C194.613 185.876 206.449 242.94 218.25 300.017C218.52 301.557 218.982 303.07 219.133 304.628C218.804 305.671 218.201 306.603 217.77 307.606C215.534 312.234 213.359 316.899 211.082 321.51C198.412 260.971 185.701 200.446 173.026 139.916C170.954 129.97 168.717 120.051 167.324 109.982C166.116 101.159 165.326 92.1586 166.596 83.2959ZM309.424 83.2959L324.992 83.2959C321.171 90.4189 317.767 97.7505 314.448 105.118C310.977 112.849 307.631 120.633 304.302 128.426C297.255 144.975 290.318 161.573 283.328 178.145C283.044 177.954 282.769 177.763 282.49 177.572C286.954 165.199 291.437 152.83 295.71 140.386C298.839 131.24 301.844 122.04 304.347 112.698C306.899 103.076 308.922 93.2592 309.424 83.2959Z" fill="#e85f24" fill-rule="evenodd" opacity="1" stroke="none"/>
<path d="M197.391 83.2959L212.467 83.2959C207.705 89.4381 205.939 97.3288 205.561 104.953C205.104 115.494 206.942 125.954 209.032 136.241C217.482 179.347 225.932 222.449 234.377 265.56C234.661 267.273 235.163 268.96 235.305 270.69C234.87 271.875 234.231 272.976 233.716 274.134C231.555 278.652 229.407 283.17 227.241 287.688C217.287 238.018 207.394 188.334 197.449 138.66C196.574 134.044 195.527 129.46 194.742 124.831C193.867 119.625 193.277 114.371 193.086 109.098C192.855 100.347 193.694 91.3331 197.391 83.2959ZM284.766 83.2959L298.542 83.2959C299.487 86.9395 299.86 90.7029 299.958 94.4575C300.091 103.591 298.591 112.649 296.767 121.569C294.685 131.555 292.045 141.416 289.297 151.233C286.857 159.86 284.318 168.457 281.722 177.04C281.429 176.836 281.145 176.636 280.861 176.436C284.105 163.664 286.981 150.785 288.982 137.759C290.536 127.281 291.623 116.656 290.957 106.058C290.429 98.1809 288.854 90.1526 284.766 83.2959Z" fill="#8ec089" fill-rule="evenodd" opacity="1" stroke="none"/>
</g>
</g>
</svg>
